<svg height='300px' width='300px'  fill="#000000" xmlns="http://www.w3.org/2000/svg" xmlns:xlink="http://www.w3.org/1999/xlink" version="1.1" x="0px" y="0px" viewBox="0 0 100 100" enable-background="new 0 0 100 100" xml:space="preserve"><g><path d="M57.64,72.188c9.346,0,16.949-7.603,16.949-16.949S66.985,38.29,57.64,38.29S40.69,45.893,40.69,55.239   S48.294,72.188,57.64,72.188z M57.64,41.29c7.691,0,13.949,6.257,13.949,13.949S65.331,69.188,57.64,69.188   S43.69,62.93,43.69,55.239S49.948,41.29,57.64,41.29z"></path><path d="M90.465,25.023l-11.434-4.479c-1.181-0.463-2.116-1.408-2.566-2.594l-1.486-3.92c-0.952-2.509-3.394-4.195-6.077-4.195   h-22.37c-2.683,0-5.125,1.686-6.077,4.195L39.18,17.39c-0.543,1.432-1.761,2.479-3.257,2.803l-4.796,1.036l-0.336-1.847   c-0.346-1.898-2.174-3.164-4.07-2.816l-10.539,1.919c-1.898,0.346-3.162,2.172-2.816,4.07l0.44,2.417l-2.813,0.608   C6.651,26.519,3.5,30.424,3.5,34.866v5.954v37.845c0,6.341,5.159,11.5,11.5,11.5h5.273H85c6.341,0,11.5-5.159,11.5-11.5V33.869   C96.5,29.931,94.131,26.459,90.465,25.023z M35.581,45.912c0.177-0.419,0.37-0.828,0.569-1.232c0.11-0.222,0.222-0.442,0.339-0.66   c0.104-0.196,0.214-0.388,0.323-0.581c0.294-0.517,0.603-1.025,0.934-1.518c0.018-0.027,0.035-0.054,0.053-0.081   c2.538-3.747,6.11-6.736,10.301-8.563c0.126-0.055,0.251-0.11,0.378-0.162c0.276-0.115,0.555-0.226,0.836-0.33   c0.282-0.104,0.567-0.201,0.854-0.295c0.289-0.095,0.581-0.184,0.874-0.268c0.322-0.092,0.645-0.179,0.971-0.258   c0.181-0.044,0.362-0.086,0.544-0.126c0.483-0.104,0.968-0.199,1.459-0.274c0.068-0.01,0.138-0.017,0.207-0.026   c0.459-0.066,0.923-0.116,1.389-0.156c0.141-0.012,0.282-0.023,0.424-0.032c0.531-0.035,1.064-0.06,1.602-0.06   s1.071,0.024,1.602,0.06c0.142,0.009,0.283,0.02,0.424,0.032c0.466,0.039,0.929,0.09,1.389,0.156   c0.069,0.01,0.139,0.016,0.207,0.026c0.491,0.074,0.977,0.17,1.459,0.274c0.183,0.04,0.364,0.082,0.545,0.126   c0.326,0.078,0.649,0.166,0.97,0.257c0.295,0.085,0.588,0.174,0.878,0.269c0.286,0.094,0.57,0.19,0.852,0.294   c0.282,0.105,0.56,0.216,0.837,0.33c0.127,0.052,0.252,0.108,0.377,0.162c4.191,1.828,7.764,4.817,10.302,8.564   c0.018,0.026,0.035,0.053,0.052,0.08c0.33,0.492,0.639,0.999,0.933,1.516c0.11,0.194,0.22,0.387,0.324,0.584   c0.116,0.217,0.228,0.437,0.337,0.658c0.2,0.407,0.394,0.818,0.573,1.24c0.571,1.347,1.017,2.758,1.335,4.217   c0.083,0.384,0.157,0.769,0.222,1.156c0.005,0.028,0.01,0.055,0.015,0.083c0.067,0.41,0.123,0.822,0.169,1.234   c0.002,0.016,0.004,0.032,0.006,0.048c0.043,0.397,0.074,0.794,0.098,1.191c0.002,0.036,0.006,0.072,0.008,0.108   c0.023,0.428,0.035,0.856,0.035,1.283c0,0.483-0.019,0.966-0.048,1.448c-0.008,0.126-0.019,0.251-0.029,0.376   c-0.029,0.377-0.065,0.752-0.112,1.127c-0.014,0.114-0.028,0.229-0.044,0.342c-0.065,0.47-0.141,0.939-0.234,1.405   c-0.001,0.004-0.001,0.008-0.002,0.012c-0.099,0.492-0.215,0.982-0.345,1.468c-2.732,10.22-12.067,17.77-23.136,17.77   c-13.206,0-23.949-10.744-23.949-23.949C33.69,51.932,34.364,48.78,35.581,45.912z M66.908,29.933   c-0.008-0.003-0.016-0.006-0.024-0.009c-0.377-0.137-0.757-0.266-1.14-0.387c-0.078-0.025-0.157-0.049-0.236-0.073   c-0.331-0.101-0.664-0.197-1.001-0.285c-0.138-0.036-0.277-0.069-0.415-0.104c-0.291-0.071-0.583-0.141-0.878-0.203   c-0.191-0.04-0.384-0.075-0.577-0.111c-0.255-0.048-0.509-0.097-0.765-0.137c-0.24-0.038-0.482-0.068-0.724-0.099   c-0.219-0.029-0.437-0.061-0.658-0.084c-0.297-0.031-0.598-0.052-0.898-0.074c-0.172-0.012-0.343-0.03-0.516-0.039   c-0.476-0.025-0.955-0.039-1.438-0.039c-0.482,0-0.961,0.014-1.438,0.039c-0.171,0.009-0.339,0.027-0.51,0.039   c-0.303,0.022-0.606,0.043-0.905,0.074c-0.217,0.023-0.431,0.055-0.647,0.082c-0.246,0.032-0.492,0.062-0.735,0.101   c-0.252,0.04-0.502,0.088-0.753,0.135c-0.197,0.037-0.395,0.073-0.591,0.114c-0.288,0.061-0.574,0.129-0.859,0.199   c-0.146,0.036-0.292,0.071-0.437,0.109c-0.328,0.086-0.653,0.18-0.976,0.278c-0.088,0.027-0.177,0.054-0.265,0.081   c-0.374,0.118-0.745,0.244-1.113,0.377c-0.019,0.007-0.037,0.014-0.056,0.02c-4.292,1.57-8.122,4.203-11.114,7.672l3.179-15.915   h34.438l3.179,15.915C75.041,34.137,71.207,31.502,66.908,29.933z M43.259,15.095c0.513-1.352,1.828-2.259,3.272-2.259h22.37   c1.445,0,2.76,0.908,3.272,2.259l1.366,3.602H41.875c0.034-0.082,0.078-0.159,0.11-0.242L43.259,15.095z M36.557,23.125   c0.188-0.041,0.368-0.101,0.55-0.155l-3.266,16.35h-1.666v-6.833c0-2.403-0.835-4.755-2.351-6.622l-0.888-1.093L36.557,23.125z    M16.317,22.019c-0.049-0.271,0.131-0.532,0.402-0.582l10.538-1.919c0.03-0.005,0.06-0.008,0.09-0.008   c0.237,0,0.448,0.169,0.492,0.41l0.354,1.943l-3.616,0.782l-7.837,1.694L16.317,22.019z M11.627,28.513l4.231-0.914   c0,0,0.001,0,0.001,0l6.098-1.318l3.691-0.798l1.847,2.274c1.083,1.333,1.68,3.013,1.68,4.73v6.833h-8.902H6.5v-4.454   C6.5,31.827,8.656,29.155,11.627,28.513z M15,87.165c-4.687,0-8.5-3.813-8.5-8.5V42.32h12.273v44.845H15z M93.5,78.665   c0,4.687-3.813,8.5-8.5,8.5H21.773V42.32h11.469l-0.546,2.732c-1.289,3.145-2.005,6.583-2.005,10.187   c0,14.86,12.089,26.949,26.949,26.949c12.027,0,22.236-7.921,25.693-18.819c3.873-0.335,6.924-3.59,6.924-7.549   c0-3.838-2.869-7.011-6.574-7.507c-0.297-1.117-0.666-2.206-1.099-3.261l-4.311-21.584l11.1,4.348   c2.508,0.983,4.129,3.358,4.129,6.052V78.665z M84.309,59.088c0.027-0.187,0.049-0.374,0.072-0.561   c0.029-0.234,0.059-0.468,0.081-0.704c0.023-0.238,0.038-0.477,0.055-0.716c0.013-0.188,0.03-0.375,0.039-0.564   c0.021-0.435,0.033-0.87,0.033-1.305c0-0.571-0.024-1.136-0.059-1.699c-0.008-0.122-0.018-0.244-0.028-0.366   c-0.038-0.501-0.09-0.998-0.155-1.491c-0.006-0.045-0.008-0.09-0.014-0.134c1.709,0.666,2.923,2.33,2.923,4.271   c0,2.016-1.309,3.732-3.121,4.344c0.02-0.107,0.034-0.215,0.052-0.322C84.23,59.592,84.273,59.341,84.309,59.088z"></path><path d="M18.022,36.784c3.557,0,6.042-1.408,6.042-3.424s-2.484-3.424-6.042-3.424s-6.042,1.408-6.042,3.424   S14.465,36.784,18.022,36.784z M18.022,32.936c1.202,0,2.063,0.215,2.58,0.424c-0.516,0.209-1.377,0.424-2.58,0.424   s-2.063-0.215-2.58-0.424C15.959,33.151,16.82,32.936,18.022,32.936z"></path></g></svg>