<svg height='300px' width='300px'  fill="#000000" xmlns="http://www.w3.org/2000/svg" xmlns:xlink="http://www.w3.org/1999/xlink" version="1.1" x="0px" y="0px" viewBox="0 0 64 64" style="enable-background:new 0 0 64 64;" xml:space="preserve"><g><path d="M58,18h-7.219l-1.053-4.212C49.17,11.558,47.176,10,44.877,10H44V9c0-1.654-1.346-3-3-3h-8c-1.654,0-3,1.346-3,3v1h-0.877   c-2.299,0-4.293,1.558-4.851,3.787L23.219,18H19v-1c0-1.654-1.346-3-3-3h-6c-1.654,0-3,1.346-3,3v1H6c-2.757,0-5,2.243-5,5v4v5v21   c0,2.757,2.243,5,5,5h52c2.757,0,5-2.243,5-5V23C63,20.243,60.757,18,58,18z M61,23v3h-7c-1.654,0-3-1.346-3-3v-3h7   C59.654,20,61,21.346,61,23z M32,9c0-0.551,0.449-1,1-1h8c0.551,0,1,0.449,1,1v1H32V9z M15,26h4v30h-4V26z M9,17   c0-0.551,0.449-1,1-1h6c0.551,0,1,0.449,1,1v1H9V17z M3,23c0-1.654,1.346-3,3-3h13v4h-6v1c0,2.757-2.243,5-5,5H3v-3V23z M3,53V32h5   c1.958,0,3.728-0.81,5-2.109V56H6C4.346,56,3,54.654,3,53z M55.448,48.055C56.335,48.259,57,49.051,57,50c0,1.103-0.897,2-2,2   c-0.585,0-1.133-0.264-1.508-0.699C54.259,50.299,54.917,49.213,55.448,48.055z M40,56c-8.271,0-15-6.729-15-15s6.729-15,15-15   s15,6.729,15,15S48.271,56,40,56z M58,56H47.983c1.566-0.837,2.981-1.913,4.207-3.177C52.928,53.557,53.93,54,55,54   c2.206,0,4-1.794,4-4c0-1.792-1.193-3.295-2.82-3.802C56.708,44.558,57,42.813,57,41c0-9.374-7.626-17-17-17s-17,7.626-17,17   c0,6.489,3.658,12.136,9.017,15H21V20h3.781l1.432-5.728C26.547,12.935,27.744,12,29.123,12h15.754c1.379,0,2.576,0.935,2.91,2.272   L49,19.123V23c0,2.757,2.243,5,5,5h7v25C61,54.654,59.654,56,58,56z"></path><path d="M43,14H31c-1.654,0-3,1.346-3,3v2c0,1.654,1.346,3,3,3h12c1.654,0,3-1.346,3-3v-2C46,15.346,44.654,14,43,14z M44,19   c0,0.551-0.449,1-1,1H31c-0.551,0-1-0.449-1-1v-2c0-0.551,0.449-1,1-1h12c0.551,0,1,0.449,1,1V19z"></path><path d="M8,28c1.654,0,3-1.346,3-3s-1.346-3-3-3s-3,1.346-3,3S6.346,28,8,28z M8,24c0.551,0,1,0.449,1,1s-0.449,1-1,1s-1-0.449-1-1   S7.449,24,8,24z"></path><rect x="9" y="34" width="2" height="2"></rect><rect x="5" y="34" width="2" height="2"></rect><path d="M40,28c-7.168,0-13,5.832-13,13s5.832,13,13,13s13-5.832,13-13S47.168,28,40,28z M40,52c-6.065,0-11-4.935-11-11   s4.935-11,11-11s11,4.935,11,11S46.065,52,40,52z"></path><path d="M40,34c-3.86,0-7,3.14-7,7s3.14,7,7,7s7-3.14,7-7S43.86,34,40,34z M40,46c-2.757,0-5-2.243-5-5s2.243-5,5-5s5,2.243,5,5   S42.757,46,40,46z"></path><path d="M40,38c-1.654,0-3,1.346-3,3s1.346,3,3,3s3-1.346,3-3S41.654,38,40,38z M40,42c-0.551,0-1-0.449-1-1s0.449-1,1-1   s1,0.449,1,1S40.551,42,40,42z"></path><rect x="57" y="22" width="2" height="2"></rect><rect x="53" y="22" width="2" height="2"></rect><rect x="57" y="30" width="2" height="2"></rect><rect x="23" y="52" width="2" height="2"></rect><rect x="23" y="22" width="2" height="2"></rect><rect x="23" y="26" width="2" height="2"></rect></g></svg>