<svg height='300px' width='300px'  fill="#000000" xmlns="http://www.w3.org/2000/svg" xmlns:xlink="http://www.w3.org/1999/xlink" version="1.1" x="0px" y="0px" viewBox="0 0 100 100" enable-background="new 0 0 100 100" xml:space="preserve"><path d="M98.5,49.999c0-8.886-0.878-17.121-2.472-23.189c-0.006-0.024-0.023-0.041-0.031-0.064  c-0.022-0.064-0.054-0.121-0.088-0.178c-0.033-0.057-0.064-0.112-0.107-0.16c-0.039-0.044-0.084-0.078-0.13-0.115  c-0.057-0.044-0.11-0.085-0.174-0.117c-0.048-0.023-0.099-0.037-0.15-0.053c-0.074-0.023-0.147-0.041-0.227-0.045  c-0.021-0.001-0.038-0.012-0.06-0.012H83.984c-0.564-2.015-1.205-3.722-1.909-5.034c-0.022-0.041-0.059-0.066-0.085-0.103  c-0.042-0.058-0.081-0.114-0.135-0.162c-0.048-0.043-0.102-0.073-0.156-0.105s-0.106-0.066-0.167-0.088  c-0.068-0.025-0.138-0.033-0.209-0.042c-0.044-0.006-0.083-0.026-0.129-0.026H43.945c-0.021,0.001-0.04-0.002-0.06,0h-8.881  c-1.072-1.768-2.316-2.78-3.729-2.78c-0.003,0-0.006,0.002-0.01,0.002H10.12c-5.659,0-8.62,16.236-8.62,32.274  s2.961,32.274,8.62,32.274h21.155c0.006,0,0.011-0.004,0.018-0.004c1.404-0.008,2.643-1.018,3.71-2.777h8.984  c0.002,0,0.005,0.001,0.008,0.001c0.002,0,0.005-0.001,0.007-0.001h6.015c0.002,0,0.003,0.001,0.005,0.001h18.25  c0.005,0,0.011,0.002,0.016,0.002s0.01-0.002,0.015-0.002h4.131c0.002,0,0.003-0.001,0.005-0.001h8.727  c0.009,0,0.017,0.003,0.024,0.003c0.124,0,0.243-0.03,0.358-0.075c0.021-0.008,0.04-0.016,0.06-0.024  c0.189-0.088,0.357-0.229,0.464-0.427c0.704-1.311,1.346-3.016,1.911-5.03H95.07c0.462,0,0.834-0.319,0.948-0.744  c0.005-0.016,0.016-0.027,0.02-0.043C97.626,67.076,98.5,58.854,98.5,49.999z M80.568,77.494H69.859  c1.486-3.529,2.631-8.904,3.285-15.194c0.003-0.03,0.018-0.057,0.018-0.088c0-0.01-0.006-0.019-0.006-0.028  c0.265-2.569,0.448-5.283,0.539-8.089c0-0.009,0.005-0.016,0.005-0.024c0-0.007-0.004-0.013-0.004-0.019  c0.043-1.335,0.068-2.687,0.068-4.054c0-1.366-0.025-2.715-0.068-4.049c0-0.006,0.004-0.012,0.004-0.018  c0-0.008-0.005-0.016-0.005-0.024c-0.091-2.806-0.274-5.521-0.538-8.091c0-0.009,0.005-0.017,0.005-0.026  c0-0.028-0.014-0.052-0.016-0.08c-0.654-6.296-1.799-11.675-3.286-15.206h10.71c2.496,5.148,4.097,15.8,4.097,27.493  C84.667,61.694,83.066,72.348,80.568,77.494z M67.668,22.505c0.765,1.575,1.444,3.661,2.021,6.143H47.429  c-0.535-2.396-1.161-4.474-1.863-6.143H67.668z M71.765,49.998c0,1.034-0.017,2.057-0.041,3.072H49.429  c0.024-1.016,0.042-2.038,0.042-3.071c0-1.032-0.017-2.053-0.042-3.068h22.294C71.748,47.944,71.765,48.965,71.765,49.998z   M71.66,44.931H49.366c-0.085-2.109-0.219-4.167-0.403-6.141h22.29C71.438,40.758,71.575,42.814,71.66,44.931z M49.366,55.07h22.293  c-0.085,2.116-0.221,4.173-0.406,6.142h-22.29C49.147,59.238,49.281,57.18,49.366,55.07z M70.112,30.647  c0.367,1.888,0.682,3.946,0.933,6.143H48.757c-0.247-2.182-0.555-4.238-0.915-6.143H70.112z M48.756,63.212h22.288  c-0.251,2.196-0.565,4.254-0.934,6.142h-22.27C48.201,67.449,48.51,65.393,48.756,63.212z M47.428,71.354h22.259  c-0.575,2.48-1.256,4.565-2.02,6.141H45.565C46.268,75.826,46.894,73.749,47.428,71.354z M3.5,50.001  c0-18.757,3.856-30.274,6.62-30.274c2.763,0,6.616,11.518,6.616,30.274s-3.854,30.274-6.616,30.274  C7.356,80.275,3.5,68.758,3.5,50.001z M31.275,80.273c-0.003,0-0.006,0.002-0.01,0.002H13.32c3.566-4.812,5.416-17.602,5.416-30.274  c0-12.673-1.85-25.462-5.416-30.274h17.955c0.002,0,0.004-0.001,0.006-0.001c0.691,0.004,1.45,0.727,2.199,2.102  c0.025,0.072,0.062,0.134,0.102,0.198c2.211,4.236,4.311,14.129,4.311,27.974c0,13.848-2.101,23.742-4.313,27.978  c-0.039,0.063-0.075,0.123-0.1,0.193C32.729,79.55,31.968,80.273,31.275,80.273z M39.893,49.999c0-10.71-1.322-21.501-3.884-27.494  h7.364c2.497,5.147,4.098,15.798,4.098,27.494c0,11.695-1.601,22.349-4.098,27.495h-7.364C38.57,71.502,39.893,60.71,39.893,49.999z   M86.667,49.998c0-8.286-0.809-16.101-2.175-21.933h9.789c1.412,5.771,2.219,13.7,2.219,21.934c0,8.225-0.809,16.16-2.223,21.941  H84.49C85.858,66.108,86.667,58.289,86.667,49.998z"></path></svg>