<svg height='300px' width='300px'  fill="#000000" xmlns="http://www.w3.org/2000/svg" xmlns:xlink="http://www.w3.org/1999/xlink" xmlns:serif="http://www.serif.com/" viewBox="0 0 64 64" version="1.1" xml:space="preserve" style="" x="0px" y="0px" fill-rule="evenodd" clip-rule="evenodd" stroke-linejoin="round" stroke-miterlimit="2"><path d="M21.051,28L19,28L19,14.149L24.632,21.19L27.4,16L36.6,16L39.368,21.19L45,14.149L45,28L42.949,28L42.116,44L39,44L39,48L25,48L25,44L21.884,44L21.051,28ZM27,44L27,46L37,46L37,44L27,44ZM23.783,42L40.217,42L40.426,38L23.574,38L23.783,42ZM39,36L40.53,36L40.686,33L37.085,33L39,33L39,36ZM25,36L25,33L23.314,33L23.47,36L25,36ZM27,33L27,36L29,36L29,33L27,33ZM31,33L31,36L33,36L33,33L31,33ZM35,33L35,36L37,36L37,33L35,33ZM23.21,31L40.79,31L40.947,28L23.053,28L23.21,31ZM35.4,18L28.6,18L24.968,24.81L21,19.851L21,26L43,26L43,19.851L39.032,24.81L35.4,18Z"></path></svg>