<svg height='300px' width='300px'  fill="#000000" xmlns="http://www.w3.org/2000/svg" xmlns:xlink="http://www.w3.org/1999/xlink" version="1.0" x="0px" y="0px" viewBox="0 0 100 100" style="enable-background:new 0 0 100 100;" xml:space="preserve"><style type="text/css">

	.st0{display:inline;}
	.st1{display:none;}

</style><g class="st1"><path class="st0" d="M92.96,30.8l-1.65-1.19V18.57c0-1.38-1.12-2.5-2.5-2.5h-14.9l-0.93-6.74c-0.17-1.24-1.23-2.16-2.48-2.16H46.76   c-1.25,0-2.31,0.92-2.48,2.16l-0.99,7.15L8,23.71c-1.16,0.24-2,1.26-2,2.45v64.18c0,1.38,1.12,2.5,2.5,2.5h83   c1.38,0,2.5-1.12,2.5-2.5V32.82C94,32.02,93.61,31.27,92.96,30.8z M86.32,26l-6.82-4.93h6.82V26z M39.82,49.05   c0-10.88,8.85-19.72,19.72-19.72c10.88,0,19.72,8.85,19.72,19.72c0,10.88-8.85,19.72-19.72,19.72   C48.67,68.77,39.82,59.92,39.82,49.05z M59.54,24.33c-4.67,0-9.05,1.3-12.78,3.57l0.94-6.82h21.85l0.8,5.75   C67.09,25.22,63.42,24.33,59.54,24.33z M68.33,12.17l0.54,3.9H48.4l0.54-3.9H68.33z M89,87.83H28.7v-8.5H81   c1.38,0,2.5-1.12,2.5-2.5s-1.12-2.5-2.5-2.5H28.7v-35.4c0-1.38-1.12-2.5-2.5-2.5s-2.5,1.12-2.5,2.5v5.15h-3.53   c-1.38,0-2.5,1.12-2.5,2.5s1.12,2.5,2.5,2.5h3.53v2.56h-3.53c-1.38,0-2.5,1.12-2.5,2.5s1.12,2.5,2.5,2.5h3.53v2.56h-3.53   c-1.38,0-2.5,1.12-2.5,2.5s1.12,2.5,2.5,2.5h3.53v2.56h-3.53c-1.38,0-2.5,1.12-2.5,2.5s1.12,2.5,2.5,2.5h3.53v2.56H18   c-1.38,0-2.5,1.12-2.5,2.5s1.12,2.5,2.5,2.5h5.7v8.5H11V28.19l31.57-6.47l-1.51,10.93c-3.88,4.37-6.24,10.11-6.24,16.39   c0,5.3,1.68,10.2,4.53,14.23H36c-1.38,0-2.5,1.12-2.5,2.5s1.12,2.5,2.5,2.5h8.03c4.25,3.43,9.64,5.49,15.51,5.49   c13.63,0,24.72-11.09,24.72-24.72c0-7.35-3.23-13.97-8.35-18.5L75.01,24L89,34.1V87.83z"></path><path class="st0" d="M28.15,27.53l-9.97,2.04c-1.35,0.28-2.22,1.6-1.95,2.95c0.24,1.18,1.28,2,2.45,2c0.17,0,0.33-0.02,0.5-0.05   l9.97-2.04c1.35-0.28,2.22-1.6,1.95-2.95C30.83,28.13,29.51,27.26,28.15,27.53z"></path><path class="st0" d="M74.7,49.05c0-8.42-6.85-15.26-15.26-15.26c-8.42,0-15.26,6.85-15.26,15.26c0,8.42,6.85,15.26,15.26,15.26   C67.86,64.31,74.7,57.46,74.7,49.05z M59.44,59.31c-5.66,0-10.26-4.6-10.26-10.26c0-5.66,4.6-10.26,10.26-10.26   c5.66,0,10.26,4.6,10.26,10.26C69.7,54.71,65.1,59.31,59.44,59.31z"></path><path class="st0" d="M80.5,66.38c-1.38,0-2.5,1.12-2.5,2.5s1.12,2.5,2.5,2.5h3.67c1.38,0,2.5-1.12,2.5-2.5s-1.12-2.5-2.5-2.5H80.5z   "></path></g><g class="st1"><path class="st0" d="M92.96,39.59l-1.65-1.19V27.36c0-1.38-1.12-2.5-2.5-2.5h-14.9l-0.93-6.74c-0.17-1.24-1.23-2.16-2.48-2.16   H46.76c-1.25,0-2.31,0.92-2.48,2.16l-0.99,7.15L8,32.5c-1.16,0.24-2,1.26-2,2.45v46.6c0,1.38,1.12,2.5,2.5,2.5h83   c1.38,0,2.5-1.12,2.5-2.5V41.62C94,40.81,93.61,40.06,92.96,39.59z M86.32,34.79l-6.82-4.93h6.82V34.79z M59.54,38.12   c10.88,0,19.72,8.85,19.72,19.72c0,10.88-8.85,19.72-19.72,19.72c-10.88,0-19.72-8.85-19.72-19.72   C39.82,46.96,48.67,38.12,59.54,38.12z M59.54,33.12c-4.67,0-9.05,1.3-12.78,3.57l0.94-6.82h21.85l0.8,5.75   C67.09,34.02,63.42,33.12,59.54,33.12z M68.33,20.96l0.54,3.9H48.4l0.54-3.9H68.33z M11,36.99l31.57-6.47l-1.51,10.93   c-3.88,4.37-6.24,10.11-6.24,16.39c0,8.99,4.83,16.88,12.02,21.2H28.7V47.73c0-1.38-1.12-2.5-2.5-2.5s-2.5,1.12-2.5,2.5v1.02h-3.53   c-1.38,0-2.5,1.12-2.5,2.5s1.12,2.5,2.5,2.5h3.53v2.56h-3.53c-1.38,0-2.5,1.12-2.5,2.5s1.12,2.5,2.5,2.5h3.53v2.56h-3.53   c-1.38,0-2.5,1.12-2.5,2.5s1.12,2.5,2.5,2.5h3.53v2.56h-3.53c-1.38,0-2.5,1.12-2.5,2.5s1.12,2.5,2.5,2.5h3.53v2.6H11V36.99z    M89,79.04H72.24c7.2-4.33,12.02-12.21,12.02-21.2c0-7.35-3.23-13.97-8.35-18.5l-0.91-6.55L89,42.89V79.04z"></path><path class="st0" d="M19.19,43.27l9.97-2.04c1.35-0.28,2.22-1.6,1.95-2.95c-0.28-1.35-1.6-2.23-2.95-1.95l-9.97,2.04   c-1.35,0.28-2.22,1.6-1.95,2.95c0.24,1.18,1.28,2,2.45,2C18.85,43.32,19.02,43.3,19.19,43.27z"></path><path class="st0" d="M59.44,73.1c8.42,0,15.26-6.85,15.26-15.26c0-8.42-6.85-15.26-15.26-15.26c-8.42,0-15.26,6.85-15.26,15.26   C44.18,66.25,51.02,73.1,59.44,73.1z M59.44,47.58c5.66,0,10.26,4.6,10.26,10.26S65.1,68.1,59.44,68.1   c-5.66,0-10.26-4.6-10.26-10.26S53.78,47.58,59.44,47.58z"></path></g><g class="st1"><path class="st0" d="M91.51,33.62h-1.43l-0.75-4.25c-0.21-1.19-1.25-2.07-2.46-2.07h-9.84c-1.21,0-2.25,0.87-2.46,2.07l-0.75,4.25   h-2.11L61.32,21.76c-0.48-0.54-1.16-0.85-1.88-0.85h-6.4c-0.72,0-1.41,0.31-1.88,0.85L40.76,33.62h-0.87v-4.37   c0-1.38-1.12-2.5-2.5-2.5H25.6c-0.37-0.92-1.26-1.58-2.32-1.58h-9.93c-1.38,0-2.5,1.12-2.5,2.5v5.95H8.52c-1.38,0-2.5,1.12-2.5,2.5   v7.33v25.81v7.33c0,1.38,1.12,2.5,2.5,2.5h82.99c1.38,0,2.5-1.12,2.5-2.5v-7.33V43.46v-7.33C94.01,34.74,92.89,33.62,91.51,33.62z    M79.13,32.31h5.64L85,33.62h-6.11L79.13,32.31z M54.17,25.91h4.13l6.76,7.72H47.41L54.17,25.91z M43.75,38.62h24.98l0.71,2.33   H43.04L43.75,38.62z M25.78,31.75h9.11v1.87h-9.11V31.75z M15.85,30.18h4.93v3.45h-4.93V30.18z M11.02,38.62h2.33h9.93h15.24   l-0.71,2.33H11.02V38.62z M11.02,52.96h3.48c1.38,0,2.5-1.12,2.5-2.5s-1.12-2.5-2.5-2.5h-3.48v-2.01h18.76v8.55   c0,1.38,1.12,2.5,2.5,2.5s2.5-1.12,2.5-2.5v-8.55h4.88h3.74c-3.82,3.49-6.24,8.5-6.24,14.07c0,2.37,0.46,4.64,1.25,6.74h-27.4   V52.96z M11.02,74.09v-2.33h30.21c0.66,0.84,1.39,1.62,2.17,2.33H11.02z M56.24,74.09c-7.76,0-14.07-6.31-14.07-14.07   s6.31-14.07,14.07-14.07S70.3,52.27,70.3,60.03S63.99,74.09,56.24,74.09z M89.01,74.09H69.06c0.79-0.72,1.51-1.49,2.17-2.33h17.78   V74.09z M89.01,47.96h-3.48c-1.38,0-2.5,1.12-2.5,2.5s1.12,2.5,2.5,2.5h3.48v13.8H74.05c0.8-2.1,1.25-4.36,1.25-6.74   c0-5.57-2.42-10.58-6.24-14.07h3.74h16.21V47.96z M89.01,40.96H74.66l-0.71-2.33h1.97h12.07h1.03V40.96z"></path><path class="st0" d="M56.24,47.96c-6.65,0-12.06,5.41-12.06,12.06s5.41,12.06,12.06,12.06S68.3,66.68,68.3,60.03   S62.89,47.96,56.24,47.96z M56.24,67.09c-3.89,0-7.06-3.17-7.06-7.06s3.17-7.06,7.06-7.06s7.06,3.17,7.06,7.06   S60.13,67.09,56.24,67.09z"></path></g><g class="st1"><path class="st0" d="M85.28,18.46h-0.44v-5.2c0-1.38-1.12-2.5-2.5-2.5h-14c-1.38,0-2.5,1.12-2.5,2.5v5.2H14.72   c-1.38,0-2.5,1.12-2.5,2.5v65.79c0,1.38,1.12,2.5,2.5,2.5h70.56c1.38,0,2.5-1.12,2.5-2.5V20.96   C87.78,19.58,86.66,18.46,85.28,18.46z M70.84,15.76h9v2.7h-9V15.76z M68.34,23.46h14h0.44v44.56H56.45V55.93   c5.42-2.46,9.21-7.92,9.21-14.25c0-8.64-7.03-15.66-15.66-15.66c-8.64,0-15.66,7.02-15.66,15.66c0,6.33,3.79,11.79,9.21,14.25   v12.09H17.22V23.46H68.34z M48.55,68.02V57.26c0.48,0.04,0.96,0.07,1.45,0.07s0.97-0.03,1.45-0.07v10.75H48.55z M50,52.34   c-5.88,0-10.66-4.78-10.66-10.66c0-5.88,4.78-10.66,10.66-10.66c5.88,0,10.66,4.78,10.66,10.66C60.66,47.56,55.88,52.34,50,52.34z    M17.22,84.24V73.02h65.56v11.23H17.22z"></path><path class="st0" d="M21.16,40.4h9.38c1.38,0,2.5-1.12,2.5-2.5s-1.12-2.5-2.5-2.5h-9.38c-1.38,0-2.5,1.12-2.5,2.5   S19.78,40.4,21.16,40.4z"></path><path class="st0" d="M70.02,40.4h8.26c1.38,0,2.5-1.12,2.5-2.5v-7.84c0-1.38-1.12-2.5-2.5-2.5h-8.26c-1.38,0-2.5,1.12-2.5,2.5v7.84   C67.52,39.28,68.64,40.4,70.02,40.4z M72.52,32.56h3.26v2.84h-3.26V32.56z"></path><path class="st0" d="M25.85,42.75c-3.27,0-5.93,2.66-5.93,5.93c0,3.27,2.66,5.93,5.93,5.93c3.27,0,5.93-2.66,5.93-5.93   C31.78,45.41,29.12,42.75,25.85,42.75z M25.85,49.61c-0.51,0-0.93-0.42-0.93-0.93c0-0.51,0.42-0.93,0.93-0.93   c0.51,0,0.93,0.42,0.93,0.93C26.78,49.19,26.36,49.61,25.85,49.61z"></path><path class="st0" d="M73.45,54.61c3.27,0,5.93-2.66,5.93-5.93c0-3.27-2.66-5.93-5.93-5.93s-5.93,2.66-5.93,5.93   C67.52,51.95,70.18,54.61,73.45,54.61z M73.45,47.75c0.51,0,0.93,0.42,0.93,0.93c0,0.51-0.42,0.93-0.93,0.93s-0.93-0.42-0.93-0.93   C72.52,48.16,72.94,47.75,73.45,47.75z"></path><path class="st0" d="M77.93,74.84H22.07c-1.38,0-2.5,1.12-2.5,2.5s1.12,2.5,2.5,2.5h55.86c1.38,0,2.5-1.12,2.5-2.5   S79.31,74.84,77.93,74.84z"></path><path class="st0" d="M50,33.25c-4.65,0-8.43,3.78-8.43,8.43S45.35,50.1,50,50.1c4.65,0,8.43-3.78,8.43-8.43S54.65,33.25,50,33.25z    M50,45.1c-1.89,0-3.43-1.54-3.43-3.43c0-1.89,1.54-3.43,3.43-3.43s3.43,1.54,3.43,3.43C53.43,43.57,51.89,45.1,50,45.1z"></path></g><g class="st1"><path class="st0" d="M81.38,38.12h-5.62v-26.2c0-1.38-1.12-2.5-2.5-2.5H26.74c-1.38,0-2.5,1.12-2.5,2.5v76.16   c0,1.38,1.12,2.5,2.5,2.5h46.52c1.38,0,2.5-1.12,2.5-2.5V63.87h5.62c1.38,0,2.5-1.12,2.5-2.5V40.62   C83.88,39.24,82.76,38.12,81.38,38.12z M70.76,14.42v4.7H29.24v-4.7H70.76z M70.76,85.58H29.24V24.12h41.52v16.5v20.75V85.58z    M78.88,58.87h-3.12V43.12h3.12V58.87z"></path><path class="st0" d="M58.47,55.06c4.35-2.8,7.25-7.67,7.25-13.22c0-8.67-7.05-15.72-15.72-15.72c-8.67,0-15.72,7.05-15.72,15.72   c0,5.55,2.9,10.42,7.25,13.22c-4.35,2.8-7.25,7.67-7.25,13.22C34.28,76.95,41.33,84,50,84c8.67,0,15.72-7.05,15.72-15.72   C65.72,62.73,62.82,57.86,58.47,55.06z M39.28,41.84c0-5.91,4.81-10.72,10.72-10.72s10.72,4.81,10.72,10.72S55.91,52.56,50,52.56   S39.28,47.75,39.28,41.84z M50,79c-5.91,0-10.72-4.81-10.72-10.72S44.09,57.56,50,57.56s10.72,4.81,10.72,10.72S55.91,79,50,79z"></path><path class="st0" d="M67,52.56h-2.75c-1.38,0-2.5,1.12-2.5,2.5s1.12,2.5,2.5,2.5H67c1.38,0,2.5-1.12,2.5-2.5S68.38,52.56,67,52.56z   "></path><path class="st0" d="M38.25,55.06c0-1.38-1.12-2.5-2.5-2.5H33c-1.38,0-2.5,1.12-2.5,2.5s1.12,2.5,2.5,2.5h2.75   C37.13,57.56,38.25,56.44,38.25,55.06z"></path><path class="st0" d="M50,32.73c-5.02,0-9.11,4.09-9.11,9.11s4.09,9.11,9.11,9.11c5.02,0,9.11-4.09,9.11-9.11S55.02,32.73,50,32.73z    M50,45.95c-2.27,0-4.11-1.84-4.11-4.11s1.84-4.11,4.11-4.11c2.27,0,4.11,1.84,4.11,4.11S52.27,45.95,50,45.95z"></path><path class="st0" d="M50,59.17c-5.02,0-9.11,4.09-9.11,9.11s4.09,9.11,9.11,9.11c5.02,0,9.11-4.09,9.11-9.11S55.02,59.17,50,59.17z    M50,72.39c-2.27,0-4.11-1.84-4.11-4.11s1.84-4.11,4.11-4.11c2.27,0,4.11,1.84,4.11,4.11S52.27,72.39,50,72.39z"></path></g><g class="st1"><path class="st0" d="M73.88,38.5H70V11.25c0-1.38-1.12-2.5-2.5-2.5H57H43H32.5c-1.38,0-2.5,1.12-2.5,2.5V38.5h-3.88   c-1.38,0-2.5,1.12-2.5,2.5v6.38H17c-1.38,0-2.5,1.12-2.5,2.5v20.79c0,1.38,1.12,2.5,2.5,2.5h6.62v15.58c0,1.38,1.12,2.5,2.5,2.5   h47.75c1.38,0,2.5-1.12,2.5-2.5V41C76.38,39.62,75.26,38.5,73.88,38.5z M54.75,13.75l1.48,14.08H43.78l1.48-14.08H54.75z M35,13.75   h5.22l-1.71,16.32c-0.07,0.7,0.15,1.41,0.63,1.93s1.15,0.83,1.86,0.83h18c0.71,0,1.38-0.3,1.86-0.83c0.47-0.53,0.7-1.23,0.63-1.93   l-1.71-16.32H65V38.5H35V13.75z M19.5,68.17V52.38h4.12v15.79H19.5z M71.38,86.25H28.62V70.67V49.88V43.5h3.88h35h3.88V86.25z"></path><path class="st0" d="M50,47.38c-9.65,0-17.5,7.85-17.5,17.5s7.85,17.5,17.5,17.5s17.5-7.85,17.5-17.5S59.65,47.38,50,47.38z    M50,77.38c-6.89,0-12.5-5.61-12.5-12.5s5.61-12.5,12.5-12.5s12.5,5.61,12.5,12.5S56.89,77.38,50,77.38z"></path><path class="st0" d="M62.65,81.15c0,1.93,1.57,3.5,3.5,3.5s3.5-1.57,3.5-3.5s-1.57-3.5-3.5-3.5S62.65,79.22,62.65,81.15z"></path><path class="st0" d="M50,57.65c-3.99,0-7.23,3.24-7.23,7.23S46.01,72.1,50,72.1c3.99,0,7.23-3.24,7.23-7.23S53.99,57.65,50,57.65z    M50,67.1c-1.23,0-2.23-1-2.23-2.23s1-2.23,2.23-2.23c1.23,0,2.23,1,2.23,2.23S51.23,67.1,50,67.1z"></path></g><g class="st1"><path class="st0" d="M86.8,32.05c1.38,0,2.5-1.12,2.5-2.5v-6.28c0-1.38-1.12-2.5-2.5-2.5h-9.82v-3.78c0-1.38-1.12-2.5-2.5-2.5   h-15.4c-1.38,0-2.5,1.12-2.5,2.5v3.78h-9.82c-1.38,0-2.5,1.12-2.5,2.5v6.28c0,1.38,1.12,2.5,2.5,2.5h0.58v1.61H13.2   c-1.38,0-2.5,1.12-2.5,2.5v20.28c0,1.38,1.12,2.5,2.5,2.5h15.38v11.19c0,1.38,1.12,2.5,2.5,2.5h16.25v1.61h-0.58   c-1.38,0-2.5,1.12-2.5,2.5v6.28c0,1.38,1.12,2.5,2.5,2.5H86.8c1.38,0,2.5-1.12,2.5-2.5v-6.28c0-1.38-1.12-2.5-2.5-2.5h-0.58V32.05   H86.8z M61.57,19.48h10.4v1.28h-10.4V19.48z M49.25,25.76h9.82h15.4h9.82v1.28h-0.58H49.83h-0.58V25.76z M33.58,67.63V56.44   c0-1.38-1.12-2.5-2.5-2.5H15.7V38.65h31.63v2.78h-5.08c-1.38,0-2.5,1.12-2.5,2.5s1.12,2.5,2.5,2.5h5.08v21.2H33.58z M84.3,80.52   H49.25v-1.28h0.58h33.88h0.58V80.52z M81.22,74.24H52.33v-4.11V36.15v-4.11h28.88V74.24z"></path><path class="st0" d="M31.52,41.43h-7.58c-1.38,0-2.5,1.12-2.5,2.5s1.12,2.5,2.5,2.5h7.58c1.38,0,2.5-1.12,2.5-2.5   S32.9,41.43,31.52,41.43z"></path><path class="st0" d="M67.25,71.38h8.12c1.38,0,2.5-1.12,2.5-2.5V37.41c0-1.38-1.12-2.5-2.5-2.5h-8.12c-1.38,0-2.5,1.12-2.5,2.5   v31.47C64.75,70.26,65.87,71.38,67.25,71.38z M69.75,39.91h3.12v26.47h-3.12V39.91z"></path></g><g class="st1"><g class="st0"><g><path d="M54.75,43.56H20.65c-1.38,0-2.5-1.12-2.5-2.5V21.37c0-1.38,1.12-2.5,2.5-2.5h34.09c1.38,0,2.5,1.12,2.5,2.5v19.69     C57.25,42.44,56.13,43.56,54.75,43.56L54.75,43.56z M23.15,38.56h29.09V23.87H23.15V38.56L23.15,38.56z"></path></g><g><path d="M74.36,43.56H54.75c-1.38,0-2.5-1.12-2.5-2.5V21.37c0-1.38,1.12-2.5,2.5-2.5h19.61c1.38,0,2.5,1.12,2.5,2.5v19.69     C76.86,42.44,75.74,43.56,74.36,43.56L74.36,43.56z M57.25,38.56h14.61V23.87H57.25V38.56L57.25,38.56z"></path></g><g><path d="M74.36,77.48h-7.84c-1.38,0-2.5-1.12-2.5-2.5V41.06c0-1.38,1.12-2.5,2.5-2.5h7.84c1.38,0,2.5,1.12,2.5,2.5v33.92     C76.86,76.36,75.74,77.48,74.36,77.48L74.36,77.48z M69.01,72.48h2.84V43.56h-2.84V72.48L69.01,72.48z"></path></g><g><path d="M69.07,87.59H44.98c-1.38,0-2.5-1.12-2.5-2.5s1.12-2.5,2.5-2.5h24.09c1.38,0,2.5,1.12,2.5,2.5S70.45,87.59,69.07,87.59     L69.07,87.59z"></path></g><g><path d="M59.24,77.48H44.98c-1.38,0-2.5-1.12-2.5-2.5v-9.89c0-1.38,1.12-2.5,2.5-2.5h14.26c1.38,0,2.5,1.12,2.5,2.5v9.89     C61.74,76.36,60.62,77.48,59.24,77.48L59.24,77.48z M47.48,72.48h9.26v-4.89h-9.26V72.48L47.48,72.48z"></path></g><g><path d="M66.51,77.48H44.98c-1.38,0-2.5-1.12-2.5-2.5V41.06c0-1.38,1.12-2.5,2.5-2.5h21.53c1.38,0,2.5,1.12,2.5,2.5v33.92     C69.01,76.36,67.89,77.48,66.51,77.48L66.51,77.48z M47.48,72.48h16.53V43.56H47.48V72.48L47.48,72.48z"></path></g><g><path d="M59.24,51.42H44.98c-1.38,0-2.5-1.12-2.5-2.5s1.12-2.5,2.5-2.5h14.26c1.38,0,2.5,1.12,2.5,2.5S60.62,51.42,59.24,51.42     L59.24,51.42z"></path></g><g><g><path d="M28.25,50.02c-1.38,0-2.5-1.12-2.5-2.5V36.84H15.07c-1.38,0-2.5-1.12-2.5-2.5s1.12-2.5,2.5-2.5h13.17      c1.38,0,2.5,1.12,2.5,2.5v13.17C30.75,48.9,29.63,50.02,28.25,50.02L28.25,50.02z"></path></g><g><path d="M28.25,30.58H15.07c-1.38,0-2.5-1.12-2.5-2.5s1.12-2.5,2.5-2.5h10.67V14.91c0-1.38,1.12-2.5,2.5-2.5s2.5,1.12,2.5,2.5      v13.17C30.75,29.46,29.63,30.58,28.25,30.58L28.25,30.58z"></path></g><g><path d="M47.68,30.58H34.51c-1.38,0-2.5-1.12-2.5-2.5V14.91c0-1.38,1.12-2.5,2.5-2.5s2.5,1.12,2.5,2.5v10.67h10.67      c1.38,0,2.5,1.12,2.5,2.5S49.06,30.58,47.68,30.58L47.68,30.58z"></path></g><g><path d="M34.51,50.02c-1.38,0-2.5-1.12-2.5-2.5V34.34c0-1.38,1.12-2.5,2.5-2.5h13.17c1.38,0,2.5,1.12,2.5,2.5s-1.12,2.5-2.5,2.5      H37.01v10.67C37.01,48.9,35.89,50.02,34.51,50.02L34.51,50.02z"></path></g></g></g></g><g class="st1"><g class="st0"><g><path d="M46.01,61.68H24.15c-1.38,0-2.5-1.12-2.5-2.5V15.1c0-1.38,1.12-2.5,2.5-2.5h21.86c1.38,0,2.5,1.12,2.5,2.5v44.08     C48.51,60.56,47.39,61.68,46.01,61.68L46.01,61.68z M26.65,56.68h16.86V17.6H26.65V56.68L26.65,56.68z"></path></g><g><path d="M38.82,40.09h-7.48c-1.38,0-2.5-1.12-2.5-2.5v-8.71c0-1.38,1.12-2.5,2.5-2.5h7.48c1.38,0,2.5,1.12,2.5,2.5v8.71     C41.32,38.97,40.2,40.09,38.82,40.09L38.82,40.09z M33.84,35.09h2.48v-3.71h-2.48V35.09L33.84,35.09z"></path></g><g><path d="M48.67,87.4c-8.87,0-16.09-7.22-16.09-16.09V59.52c0-1.38,1.12-2.5,2.5-2.5s2.5,1.12,2.5,2.5v11.79     c0,6.12,4.98,11.09,11.09,11.09c6.12,0,11.09-4.98,11.09-11.09V44.26c0-8.87,7.22-16.09,16.09-16.09c1.38,0,2.5,1.12,2.5,2.5     s-1.12,2.5-2.5,2.5c-6.12,0-11.09,4.98-11.09,11.09v27.04C64.76,80.18,57.54,87.4,48.67,87.4L48.67,87.4z"></path></g><g><path d="M35.08,47.89c-1.38,0-2.5-1.12-2.5-2.5v-7.8c0-1.38,1.12-2.5,2.5-2.5s2.5,1.12,2.5,2.5v7.8     C37.58,46.77,36.46,47.89,35.08,47.89L35.08,47.89z"></path></g></g></g><g class="st1"><g class="st0"><g><g><path d="M39.15,61.33c-0.23,0-0.47-0.03-0.7-0.1l-9.6-2.8c-0.64-0.19-1.17-0.62-1.49-1.2c-0.32-0.58-0.39-1.27-0.21-1.9      l7.05-24.15c0.39-1.33,1.78-2.09,3.1-1.7c1.33,0.39,2.09,1.77,1.7,3.1l-6.35,21.75l4.8,1.4l5.15-17.64      c0.39-1.33,1.78-2.09,3.1-1.7c1.33,0.39,2.09,1.77,1.7,3.1l-5.85,20.04C41.23,60.62,40.23,61.33,39.15,61.33L39.15,61.33z"></path></g><g><path d="M27,85.13c-0.23,0-0.47-0.03-0.7-0.1c-1.33-0.39-2.09-1.78-1.7-3.1l7.35-25.2c0.39-1.33,1.78-2.08,3.1-1.7      c1.33,0.39,2.09,1.78,1.7,3.1l-7.35,25.2C29.08,84.42,28.08,85.13,27,85.13L27,85.13z"></path></g></g><g><g><path d="M60.85,61.33c-1.08,0-2.08-0.71-2.4-1.8L52.6,39.48c-0.39-1.33,0.38-2.71,1.7-3.1c1.33-0.39,2.71,0.37,3.1,1.7      l5.15,17.64l4.8-1.4L61,32.58c-0.39-1.33,0.38-2.71,1.7-3.1c1.33-0.39,2.71,0.37,3.1,1.7l7.05,24.15      c0.19,0.64,0.11,1.32-0.21,1.9c-0.32,0.58-0.86,1.01-1.49,1.2l-9.6,2.8C61.32,61.29,61.08,61.33,60.85,61.33L60.85,61.33z"></path></g><g><path d="M73,85.13c-1.08,0-2.08-0.71-2.4-1.8l-7.35-25.2c-0.39-1.33,0.38-2.71,1.7-3.1c1.33-0.38,2.71,0.38,3.1,1.7l7.35,25.2      c0.39,1.33-0.38,2.71-1.7,3.1C73.47,85.09,73.23,85.13,73,85.13L73,85.13z"></path></g></g><g><g><path d="M55,61.33H45c-1.38,0-2.5-1.12-2.5-2.5V31.88c0-1.38,1.12-2.5,2.5-2.5h10c1.38,0,2.5,1.12,2.5,2.5v26.95      C57.5,60.21,56.38,61.33,55,61.33L55,61.33z M47.5,56.33h5V34.38h-5V56.33L47.5,56.33z"></path></g><g><path d="M50,89.12c-1.38,0-2.5-1.12-2.5-2.5v-27.8c0-1.38,1.12-2.5,2.5-2.5s2.5,1.12,2.5,2.5v27.8      C52.5,88.01,51.38,89.12,50,89.12L50,89.12z"></path></g></g><g><path d="M64,34.38H36c-1.38,0-2.5-1.12-2.5-2.5v-11c0-1.38,1.12-2.5,2.5-2.5h28c1.38,0,2.5,1.12,2.5,2.5v11     C66.5,33.26,65.38,34.38,64,34.38L64,34.38z M38.5,29.38h23v-6h-23V29.38L38.5,29.38z"></path></g><g><path d="M50,23.38c-1.38,0-2.5-1.12-2.5-2.5v-7.5c0-1.38,1.12-2.5,2.5-2.5s2.5,1.12,2.5,2.5v7.5C52.5,22.26,51.38,23.38,50,23.38     L50,23.38z"></path></g></g></g><g class="st1"><g class="st0"><path d="M84.75,27.44H84.5v-7c0-1.25-0.92-2.28-2.12-2.46v-6.41c0-1.38-1.12-2.5-2.5-2.5H20.12c-1.38,0-2.5,1.12-2.5,2.5v6.41    c-1.2,0.18-2.12,1.21-2.12,2.46v7h-0.25c-1.38,0-2.5,1.12-2.5,2.5v27.12c0,1.38,1.12,2.5,2.5,2.5h1.25V81.5    c0,1.38,1.12,2.5,2.5,2.5h62c1.38,0,2.5-1.12,2.5-2.5V59.56h1.25c1.38,0,2.5-1.12,2.5-2.5V29.94    C87.25,28.56,86.13,27.44,84.75,27.44z M82.25,32.44v22.12H81h-1.47V32.44H82H82.25z M71.81,54.56V32.44h2.72v22.12H71.81z     M64.08,54.56V32.44h2.72v22.12H64.08z M56.36,54.56V32.44h2.72v22.12H56.36z M48.64,54.56V32.44h2.72v22.12H48.64z M40.92,54.56    V32.44h2.72v22.12H40.92z M33.19,54.56V32.44h2.72v22.12H33.19z M25.47,54.56V32.44h2.72v22.12H25.47z M19,54.56h-1.25V32.44H18    h2.47v22.12H19z M77.38,17.94H76.4v-3.88h0.97V17.94z M70.42,17.94v-3.88h0.98v3.88H70.42z M64.45,17.94v-3.88h0.97v3.88H64.45z     M58.47,17.94v-3.88h0.98v3.88H58.47z M52.5,17.94v-3.88h0.97v3.88H52.5z M46.52,17.94v-3.88h0.98v3.88H46.52z M40.55,17.94v-3.88    h0.98v3.88H40.55z M34.58,17.94v-3.88h0.97v3.88H34.58z M28.6,17.94v-3.88h0.98v3.88H28.6z M22.62,14.06h0.98v3.88h-0.98V14.06z     M20.5,22.94h59v4.5h-59V22.94z M78.5,69.23h-3.42c-1.38,0-2.5,1.12-2.5,2.5s1.12,2.5,2.5,2.5h3.42V79h-57V59.56h57V69.23z"></path><path d="M73.56,85.81H26.44c-1.38,0-2.5,1.12-2.5,2.5s1.12,2.5,2.5,2.5h47.12c1.38,0,2.5-1.12,2.5-2.5S74.94,85.81,73.56,85.81z"></path><path d="M28.5,65.19c-1.38,0-2.5,1.12-2.5,2.5v4.62c0,1.38,1.12,2.5,2.5,2.5s2.5-1.12,2.5-2.5v-4.62    C31,66.31,29.88,65.19,28.5,65.19z"></path><path d="M67.08,69.23H39.92c-1.38,0-2.5,1.12-2.5,2.5s1.12,2.5,2.5,2.5h27.17c1.38,0,2.5-1.12,2.5-2.5S68.46,69.23,67.08,69.23z"></path></g></g><g class="st1"><path class="st0" d="M69.9,31V19.95c0-1.38-1.12-2.5-2.5-2.5h-0.12v-3.89c0-1.38-1.12-2.5-2.5-2.5H35.22c-1.38,0-2.5,1.12-2.5,2.5   v3.89H32.6c-1.38,0-2.5,1.12-2.5,2.5V31c-1.16,0.21-2.05,1.23-2.05,2.45v6.14v21.45v11.54c0,1.38,1.12,2.5,2.5,2.5h0.94v6.18   c0,1.38,1.12,2.5,2.5,2.5h32.02c1.38,0,2.5-1.12,2.5-2.5v-6.18h0.94c1.38,0,2.5-1.12,2.5-2.5V61.05V39.6v-6.14   C71.94,32.23,71.06,31.22,69.9,31z M66.94,70.09h-0.94H33.99h-0.94v-6.54h33.89V70.09z M35.1,22.45h0.12h29.56h0.12v8.51H35.1   V22.45z M58.98,58.55V42.1h1.48v16.45H58.98z M52.5,58.55V42.1h1.48v16.45H52.5z M46.02,58.55V42.1h1.48v16.45H46.02z M39.54,58.55   V42.1h1.48v16.45H39.54z M33.05,58.55V42.1h1.48v16.45H33.05z M33.05,37.1v-1.14h33.89v1.14H33.05z M65.46,58.55V42.1h1.48v16.45   H65.46z M37.72,16.06h24.56v1.39H37.72V16.06z M63.51,78.77H36.49v-3.68h27.02V78.77z"></path><path class="st0" d="M60.36,85.81H39.64c-1.38,0-2.5,1.12-2.5,2.5s1.12,2.5,2.5,2.5h20.71c1.38,0,2.5-1.12,2.5-2.5   S61.74,85.81,60.36,85.81z"></path></g><g class="st1"><path class="st0" d="M66.21,17h-2.58v-4.44c0-1.38-1.12-2.5-2.5-2.5H38.88c-1.38,0-2.5,1.12-2.5,2.5V17H33.8   c-1.38,0-2.5,1.12-2.5,2.5v7.08V37.5c0,0.1,0.02,0.2,0.03,0.3c0.01,0.05,0,0.1,0.01,0.15l1.96,10.69v19.27V81.5   c0,1.38,1.12,2.5,2.5,2.5h28.41c1.38,0,2.5-1.12,2.5-2.5V67.92V48.64l1.96-10.69c0.01-0.05,0-0.1,0.01-0.15   c0.01-0.1,0.03-0.2,0.03-0.3V26.58V19.5C68.71,18.12,67.59,17,66.21,17z M52.5,65.42v-14.5h2.1v14.5H52.5z M45.4,65.42v-14.5h2.1   v14.5H45.4z M38.3,65.42v-14.5h2.1v14.5H38.3z M44.26,29.08V35h-1.48v-5.92H44.26z M50.74,29.08V35h-1.48v-5.92H50.74z    M57.22,29.08V35h-1.48v-5.92H57.22z M63.71,29.08V35h-1.48v-5.92H63.71z M62.12,45.92H37.88L36.79,40h26.41L62.12,45.92z    M37.78,35H36.3v-5.92h1.48V35z M59.6,50.92h2.1v14.5h-2.1V50.92z M41.38,15.06h17.24V17H41.38V15.06z M36.3,22h2.58h22.24h2.58   v2.08H36.3V22z M61.71,79H38.3v-8.58h23.41V79z"></path><path class="st0" d="M60.16,85.81H39.41c-1.38,0-2.5,1.12-2.5,2.5s1.12,2.5,2.5,2.5h20.75c1.38,0,2.5-1.12,2.5-2.5   S61.54,85.81,60.16,85.81z"></path><path class="st0" d="M50,72.21h-7.1c-1.38,0-2.5,1.12-2.5,2.5s1.12,2.5,2.5,2.5H50c1.38,0,2.5-1.12,2.5-2.5S51.38,72.21,50,72.21z"></path></g><g class="st1"><path class="st0" d="M82.78,19.62h-6.49c-7.67-5.6-16.73-8.56-26.27-8.56c-9.54,0-18.6,2.96-26.27,8.56h-5.77   c-1.38,0-2.5,1.12-2.5,2.5v13.42c0,1.38,1.12,2.5,2.5,2.5h1.51v8.58c0,1.38,1.12,2.5,2.5,2.5h1.52v15.53v0.05v9.77v7.03   c0,1.38,1.12,2.5,2.5,2.5h48.65c1.38,0,2.5-1.12,2.5-2.5v-7.03V64.7v-0.05V49.12h1.52c1.38,0,2.5-1.12,2.5-2.5v-8.58h1.6   c1.38,0,2.5-1.12,2.5-2.5V22.12C85.28,20.74,84.16,19.62,82.78,19.62z M50.01,16.06c5.77,0,11.33,1.22,16.45,3.56H33.57   C38.68,17.28,44.25,16.06,50.01,16.06z M20.47,24.62h59.8v8.42h-1.6H21.99h-1.51V24.62z M63.25,71.97V67.2h1.95v4.77H63.25z    M56.3,71.97V67.2h1.95v4.77H56.3z M49.36,71.97V67.2h1.95v4.77H49.36z M42.41,71.97V67.2h1.95v4.77H42.41z M35.46,71.97V67.2h1.95   v4.77H35.46z M28.51,71.97V67.2h1.95v4.77H28.51z M70.2,67.2h1.95v4.77H70.2V67.2z M72.15,53.16h-4.73c-1.38,0-2.5,1.12-2.5,2.5   s1.12,2.5,2.5,2.5h4.73v3.99H28.51V49.12h43.65V53.16z M30.79,38.04h1.3v6.08h-1.3V38.04z M38.38,38.04v6.08h-1.3v-6.08H38.38z    M44.68,38.04v6.08h-1.3v-6.08H44.68z M50.98,38.04v6.08h-1.3v-6.08H50.98z M57.28,38.04v6.08h-1.3v-6.08H57.28z M63.58,38.04v6.08   h-1.3v-6.08H63.58z M69.87,44.12h-1.3v-6.08h1.3V44.12z M25.79,38.04v6.08h-1.3v-6.08H25.79z M72.15,79H28.51v-2.03h43.65V79z    M76.17,44.12h-1.3v-6.08h1.3V44.12z"></path><path class="st0" d="M58.96,53.16H41.7c-1.38,0-2.5,1.12-2.5,2.5s1.12,2.5,2.5,2.5h17.26c1.38,0,2.5-1.12,2.5-2.5   S60.34,53.16,58.96,53.16z"></path><path class="st0" d="M70.38,85.81H29.63c-1.38,0-2.5,1.12-2.5,2.5s1.12,2.5,2.5,2.5h40.75c1.38,0,2.5-1.12,2.5-2.5   S71.76,85.81,70.38,85.81z"></path></g><g class="st1"><path class="st0" d="M61.5,11.06H37c-1.38,0-2.5,1.12-2.5,2.5v6.69v20.88c0,0.04,0.01,0.08,0.01,0.13c0,0.07,0.01,0.14,0.02,0.21   c0.02,0.12,0.04,0.24,0.08,0.36c0.01,0.04,0.01,0.07,0.02,0.11l2.24,6.59v8.36v0v1.62h-4.5c-1.38,0-2.5,1.12-2.5,2.5v7.06   c0,1.38,1.12,2.5,2.5,2.5h4.5v4.62c0,1.12,0.74,2.05,1.75,2.37v3.94c0,1.38,1.12,2.5,2.5,2.5h16.25c1.38,0,2.5-1.12,2.5-2.5v-3.94   c1.01-0.32,1.75-1.25,1.75-2.37V56.88v0v-8.35l2.24-6.59c0.01-0.04,0.01-0.08,0.02-0.12c0.03-0.11,0.06-0.23,0.07-0.35   c0.01-0.07,0.02-0.14,0.02-0.22c0-0.04,0.01-0.08,0.01-0.12V20.25v-6.69C64,12.18,62.88,11.06,61.5,11.06z M59,38.62H39.5V22.75H59   V38.62z M56.62,54.37h-1.58V50.6h1.58V54.37z M41.88,50.6h1.58v3.77h-1.58V50.6z M50.04,50.6v3.77h-1.58V50.6H50.04z M57.33,45.6   H41.17l-0.67-1.98h17.52L57.33,45.6z M41.88,68.06V61v-1.62h14.75v13.31H41.88V68.06z M39.5,16.06H59v1.69H39.5V16.06z    M34.88,65.56V63.5h2v2.06H34.88z M54.88,79H43.62v-1.31h11.25V79z"></path><path class="st0" d="M55,85.81H43.5c-1.38,0-2.5,1.12-2.5,2.5s1.12,2.5,2.5,2.5H55c1.38,0,2.5-1.12,2.5-2.5S56.38,85.81,55,85.81z"></path></g><g class="st1"><path class="st0" d="M81.38,22.62c0-1.01-0.61-1.92-1.54-2.31c-0.94-0.39-2.01-0.17-2.72,0.54l-3.04,3.04L61.96,11.79   c-0.47-0.47-1.1-0.73-1.77-0.73H40.81c-0.66,0-1.3,0.26-1.77,0.73L26.94,23.9l-3.04-3.04c-0.71-0.72-1.79-0.93-2.72-0.54   c-0.93,0.39-1.54,1.3-1.54,2.31v11.69c0,0.04,0.01,0.08,0.01,0.13c0,0.07,0.01,0.14,0.02,0.21c0.02,0.12,0.04,0.24,0.08,0.36   c0.01,0.04,0.01,0.07,0.02,0.11l2.74,8.04v12.21c0,1.12,0.74,2.05,1.75,2.37v1.57c-1.01,0.32-1.75,1.25-1.75,2.37v13.81   c0,1.12,0.74,2.05,1.75,2.37v3.63c0,1.38,1.12,2.5,2.5,2.5h47.5c1.38,0,2.5-1.12,2.5-2.5v-3.63c1.01-0.32,1.75-1.25,1.75-2.37   V61.69c0-1.12-0.74-2.05-1.75-2.37v-1.57c1.01-0.32,1.75-1.25,1.75-2.37V43.16l2.74-8.04c0.01-0.04,0.01-0.07,0.02-0.11   c0.03-0.12,0.06-0.24,0.08-0.36c0.01-0.07,0.02-0.14,0.02-0.21c0-0.04,0.01-0.08,0.01-0.13V22.62z M24.62,28.66l0.54,0.54   c0.98,0.98,2.56,0.98,3.54,0l13.14-13.14h17.3l13.14,13.14c0.98,0.98,2.56,0.98,3.54,0l0.54-0.54v3.15H24.62V28.66z M27.5,72.99   v-8.81h5.19v8.81H27.5z M37.69,64.19h15.75v8.81H37.69V64.19z M58.44,64.19H73.5v8.81H58.44V64.19z M71.75,59.19H55.94H35.19h-5.94   v-1.31h42.5V59.19z M37.07,45.25v7.62h-2.29v-7.62H37.07z M44.36,45.25v7.62h-2.29v-7.62H44.36z M51.64,45.25v7.62h-2.29v-7.62   H51.64z M58.93,45.25v7.62h-2.29v-7.62H58.93z M66.21,45.25v7.62h-2.29v-7.62H66.21z M73.5,45.25v7.62h-2.29v-7.62H73.5z    M29.79,52.88H27.5v-7.62h2.29V52.88z M74.21,40.25H26.79l-1.17-3.44h49.76L74.21,40.25z M71.75,79h-42.5v-1.01h5.94h20.75h15.81   V79z"></path><path class="st0" d="M69.62,85.81H31.4c-1.38,0-2.5,1.12-2.5,2.5s1.12,2.5,2.5,2.5h38.23c1.38,0,2.5-1.12,2.5-2.5   S71.01,85.81,69.62,85.81z"></path><path class="st0" d="M69.62,66.09h-6.75c-1.38,0-2.5,1.12-2.5,2.5s1.12,2.5,2.5,2.5h6.75c1.38,0,2.5-1.12,2.5-2.5   S71.01,66.09,69.62,66.09z"></path></g><g><path d="M81.56,22.44c0-1.01-0.61-1.92-1.54-2.31c-0.94-0.39-2.01-0.17-2.72,0.54l-2.7,2.7L63.02,11.79   c-0.47-0.47-1.1-0.73-1.77-0.73h-22.5c-0.66,0-1.3,0.26-1.77,0.73L25.41,23.37l-2.7-2.7c-0.72-0.72-1.79-0.93-2.72-0.54   c-0.93,0.39-1.54,1.3-1.54,2.31v14.94c0,0.04,0.01,0.08,0.01,0.12c0,0.06,0.01,0.12,0.02,0.18c0.02,0.16,0.05,0.32,0.1,0.47   c0.01,0.04,0.02,0.09,0.04,0.13c0.08,0.19,0.17,0.37,0.29,0.54c0.01,0.01,0.01,0.02,0.02,0.03l5.14,7.03v8.18   c0,1.38,1.12,2.5,2.5,2.5h0.75V66v8.62c0,0.09,0.02,0.18,0.03,0.27c0.01,0.06,0.01,0.11,0.02,0.17c0.03,0.19,0.09,0.37,0.16,0.55   c0,0,0,0.01,0,0.01l3,6.88c0.4,0.91,1.3,1.5,2.29,1.5h34.38c0.99,0,1.89-0.59,2.29-1.5l3-6.88c0,0,0-0.01,0-0.01   c0.08-0.17,0.13-0.36,0.16-0.55c0.01-0.06,0.01-0.11,0.02-0.17c0.01-0.09,0.03-0.18,0.03-0.27V66v-9.44h0.75   c1.38,0,2.5-1.12,2.5-2.5v-8.18l5.14-7.03c0.01-0.01,0.01-0.02,0.02-0.03c0.12-0.17,0.22-0.35,0.29-0.54   c0.02-0.04,0.03-0.08,0.04-0.13c0.05-0.15,0.08-0.31,0.1-0.47c0.01-0.06,0.01-0.12,0.02-0.18c0-0.04,0.01-0.08,0.01-0.13V22.44z    M23.44,28.47l0.2,0.2c0.94,0.94,2.6,0.94,3.54,0l12.61-12.61h20.43l12.61,12.61c0.94,0.94,2.6,0.94,3.54,0l0.2-0.2v6.4H23.44   V28.47z M70.94,51.56h-0.75h-0.95v-4h1.7V51.56z M62.54,51.56v-4h1.7v4H62.54z M55.85,51.56v-4h1.7v4H55.85z M49.15,51.56v-4h1.7v4   H49.15z M42.46,51.56v-4h1.7v4H42.46z M35.76,51.56v-4h1.7v4H35.76z M29.81,51.56h-0.75v-4h1.7v4H29.81z M72.17,42.56H27.83   l-1.97-2.69h48.27L72.17,42.56z M40.77,68.5v3.62h-1.73V68.5H40.77z M47.5,68.5v3.62h-1.73V68.5H47.5z M54.23,68.5v3.62H52.5V68.5   H54.23z M60.96,68.5v3.62h-1.73V68.5H60.96z M67.69,68.5v3.62h-1.73V68.5H67.69z M34.04,72.12h-1.73V68.5h1.73V72.12z M65.55,79   h-31.1l-0.82-1.88h32.74L65.55,79z M67.69,63.5H32.31v-6.94h35.38V63.5z"></path><path d="M63.88,85.81H36.12c-1.38,0-2.5,1.12-2.5,2.5s1.12,2.5,2.5,2.5h27.75c1.38,0,2.5-1.12,2.5-2.5S65.26,85.81,63.88,85.81z"></path></g><g class="st1"><g class="st0"><g><path d="M79.61,74.79h-59.2c-1.38,0-2.5-1.12-2.5-2.5v-15.2c0-1.38,1.12-2.5,2.5-2.5h59.2c1.38,0,2.5,1.12,2.5,2.5v15.2     C82.11,73.67,80.99,74.79,79.61,74.79L79.61,74.79z M22.91,69.79h54.2v-10.2h-54.2V69.79L22.91,69.79z"></path></g><g><path d="M76.76,84h-53.5c-1.1,0-2.06-0.71-2.39-1.76l-2.85-9.21c-0.23-0.76-0.1-1.58,0.38-2.22s1.22-1.02,2.01-1.02h59.2     c0.79,0,1.54,0.38,2.01,1.02c0.47,0.64,0.61,1.46,0.38,2.22l-2.85,9.21C78.82,83.29,77.86,84,76.76,84L76.76,84z M25.11,79h49.81     l1.3-4.21H23.8L25.11,79L25.11,79z"></path></g><g><path d="M79.61,59.59h-59.2c-1.38,0-2.5-1.12-2.5-2.5v-8.9c0-1.38,1.12-2.5,2.5-2.5h59.2c1.38,0,2.5,1.12,2.5,2.5v8.9     C82.11,58.47,80.99,59.59,79.61,59.59L79.61,59.59z M22.91,54.59h54.2v-3.9h-54.2V54.59L22.91,54.59z"></path></g><g><path d="M79.61,50.69h-59.2c-1.38,0-2.5-1.12-2.5-2.5v-9c0-1.38,1.12-2.5,2.5-2.5h59.2c1.38,0,2.5,1.12,2.5,2.5v9     C82.11,49.57,80.99,50.69,79.61,50.69L79.61,50.69z M22.91,45.69h54.2v-4h-54.2V45.69L22.91,45.69z"></path></g><g><path d="M72.23,90.81H27.77c-1.38,0-2.5-1.12-2.5-2.5s1.12-2.5,2.5-2.5h44.46c1.38,0,2.5,1.12,2.5,2.5S73.61,90.81,72.23,90.81     L72.23,90.81z"></path></g><g><path d="M28.87,59.59c-1.38,0-2.5-1.12-2.5-2.5v-8.9c0-1.38,1.12-2.5,2.5-2.5s2.5,1.12,2.5,2.5v8.9     C31.37,58.47,30.25,59.59,28.87,59.59L28.87,59.59z"></path></g><g><path d="M20.41,59.59c-1.38,0-2.5-1.12-2.5-2.5v-8.9c0-1.38,1.12-2.5,2.5-2.5s2.5,1.12,2.5,2.5v8.9     C22.91,58.47,21.79,59.59,20.41,59.59L20.41,59.59z"></path></g><g><path d="M37.32,59.59c-1.38,0-2.5-1.12-2.5-2.5v-8.9c0-1.38,1.12-2.5,2.5-2.5s2.5,1.12,2.5,2.5v8.9     C39.82,58.47,38.71,59.59,37.32,59.59L37.32,59.59z"></path></g><g><path d="M45.78,59.59c-1.38,0-2.5-1.12-2.5-2.5v-8.9c0-1.38,1.12-2.5,2.5-2.5s2.5,1.12,2.5,2.5v8.9     C48.28,58.47,47.16,59.59,45.78,59.59L45.78,59.59z"></path></g><g><path d="M54.24,59.59c-1.38,0-2.5-1.12-2.5-2.5v-8.9c0-1.38,1.12-2.5,2.5-2.5s2.5,1.12,2.5,2.5v8.9     C56.74,58.47,55.62,59.59,54.24,59.59L54.24,59.59z"></path></g><g><path d="M62.7,59.59c-1.38,0-2.5-1.12-2.5-2.5v-8.9c0-1.38,1.12-2.5,2.5-2.5s2.5,1.12,2.5,2.5v8.9     C65.2,58.47,64.08,59.59,62.7,59.59L62.7,59.59z"></path></g><g><path d="M71.15,59.59c-1.38,0-2.5-1.12-2.5-2.5v-8.9c0-1.38,1.12-2.5,2.5-2.5s2.5,1.12,2.5,2.5v8.9     C73.65,58.47,72.53,59.59,71.15,59.59L71.15,59.59z"></path></g><g><path d="M79.61,59.59c-1.38,0-2.5-1.12-2.5-2.5v-8.9c0-1.38,1.12-2.5,2.5-2.5s2.5,1.12,2.5,2.5v8.9     C82.11,58.47,80.99,59.59,79.61,59.59L79.61,59.59z"></path></g><g><path d="M41.86,74.79H31.85c-1.38,0-2.5-1.12-2.5-2.5v-7.6c0-1.38,1.12-2.5,2.5-2.5h10.02c1.38,0,2.5,1.12,2.5,2.5v7.6     C44.36,73.67,43.24,74.79,41.86,74.79L41.86,74.79z M34.35,69.79h5.02v-2.6h-5.02V69.79L34.35,69.79z"></path></g><g><path d="M68.16,67.19h-18.1c-1.38,0-2.5-1.12-2.5-2.5s1.12-2.5,2.5-2.5h18.1c1.38,0,2.5,1.12,2.5,2.5S69.54,67.19,68.16,67.19     L68.16,67.19z"></path></g></g></g><g class="st1"><g class="st0"><g><path d="M76.44,26.75H23.56c-0.63,0-1.23-0.23-1.69-0.66l-3-2.75c-0.52-0.47-0.81-1.14-0.81-1.84v-7.94c0-1.38,1.12-2.5,2.5-2.5     h58.88c1.38,0,2.5,1.12,2.5,2.5v7.94c0,0.7-0.29,1.37-0.81,1.84l-3,2.75C77.67,26.52,77.06,26.75,76.44,26.75L76.44,26.75z      M24.54,21.75h50.93l1.47-1.35v-4.34H23.06v4.34L24.54,21.75L24.54,21.75z"></path></g><g><path d="M76.44,37.38H23.56c-1.38,0-2.5-1.12-2.5-2.5V24.25c0-1.38,1.12-2.5,2.5-2.5h52.88c1.38,0,2.5,1.12,2.5,2.5v10.62     C78.94,36.26,77.82,37.38,76.44,37.38L76.44,37.38z M26.06,32.38h47.88v-5.62H26.06V32.38L26.06,32.38z"></path></g><g><path d="M74.56,54.75H25.44c-1.38,0-2.5-1.12-2.5-2.5V34.88c0-1.38,1.12-2.5,2.5-2.5h49.12c1.38,0,2.5,1.12,2.5,2.5v17.38     C77.06,53.63,75.94,54.75,74.56,54.75L74.56,54.75z M27.94,49.75h44.12V37.38H27.94V49.75L27.94,49.75z"></path></g><g><path d="M76.44,63.44H23.56c-1.38,0-2.5-1.12-2.5-2.5v-8.69c0-1.38,1.12-2.5,2.5-2.5h52.88c1.38,0,2.5,1.12,2.5,2.5v8.69     C78.94,62.32,77.82,63.44,76.44,63.44L76.44,63.44z M26.06,58.44h47.88v-3.69H26.06V58.44L26.06,58.44z"></path></g><g><path d="M74.56,77.56H25.44c-1.38,0-2.5-1.12-2.5-2.5V60.94c0-1.38,1.12-2.5,2.5-2.5h49.12c1.38,0,2.5,1.12,2.5,2.5v14.12     C77.06,76.44,75.94,77.56,74.56,77.56L74.56,77.56z M27.94,72.56h44.12v-9.12H27.94V72.56L27.94,72.56z"></path></g><g><path d="M67.31,84H32.69c-1.38,0-2.5-1.12-2.5-2.5v-6.44c0-1.38,1.12-2.5,2.5-2.5h34.62c1.38,0,2.5,1.12,2.5,2.5v6.44     C69.81,82.88,68.69,84,67.31,84L67.31,84z M35.19,79h29.62v-1.44H35.19V79L35.19,79z"></path></g><g><path d="M78.69,46.88H21.31c-1.38,0-2.5-1.12-2.5-2.5s1.12-2.5,2.5-2.5h57.38c1.38,0,2.5,1.12,2.5,2.5S80.07,46.88,78.69,46.88     L78.69,46.88z"></path></g><g><path d="M23.56,63.44c-1.38,0-2.5-1.12-2.5-2.5v-8.69c0-1.38,1.12-2.5,2.5-2.5s2.5,1.12,2.5,2.5v8.69     C26.06,62.32,24.94,63.44,23.56,63.44L23.56,63.44z"></path></g><g><path d="M31.12,63.44c-1.38,0-2.5-1.12-2.5-2.5v-8.69c0-1.38,1.12-2.5,2.5-2.5s2.5,1.12,2.5,2.5v8.69     C33.62,62.32,32.5,63.44,31.12,63.44L31.12,63.44z"></path></g><g><path d="M38.67,63.44c-1.38,0-2.5-1.12-2.5-2.5v-8.69c0-1.38,1.12-2.5,2.5-2.5s2.5,1.12,2.5,2.5v8.69     C41.17,62.32,40.05,63.44,38.67,63.44L38.67,63.44z"></path></g><g><path d="M46.22,63.44c-1.38,0-2.5-1.12-2.5-2.5v-8.69c0-1.38,1.12-2.5,2.5-2.5s2.5,1.12,2.5,2.5v8.69     C48.72,62.32,47.6,63.44,46.22,63.44L46.22,63.44z"></path></g><g><path d="M53.78,63.44c-1.38,0-2.5-1.12-2.5-2.5v-8.69c0-1.38,1.12-2.5,2.5-2.5s2.5,1.12,2.5,2.5v8.69     C56.28,62.32,55.16,63.44,53.78,63.44L53.78,63.44z"></path></g><g><path d="M61.33,63.44c-1.38,0-2.5-1.12-2.5-2.5v-8.69c0-1.38,1.12-2.5,2.5-2.5s2.5,1.12,2.5,2.5v8.69     C63.83,62.32,62.71,63.44,61.33,63.44L61.33,63.44z"></path></g><g><path d="M68.88,63.44c-1.38,0-2.5-1.12-2.5-2.5v-8.69c0-1.38,1.12-2.5,2.5-2.5s2.5,1.12,2.5,2.5v8.69     C71.38,62.32,70.26,63.44,68.88,63.44L68.88,63.44z"></path></g><g><path d="M76.44,63.44c-1.38,0-2.5-1.12-2.5-2.5v-8.69c0-1.38,1.12-2.5,2.5-2.5s2.5,1.12,2.5,2.5v8.69     C78.94,62.32,77.82,63.44,76.44,63.44L76.44,63.44z"></path></g><g><path d="M62.19,90.81H37.81c-1.38,0-2.5-1.12-2.5-2.5s1.12-2.5,2.5-2.5h24.38c1.38,0,2.5,1.12,2.5,2.5S63.57,90.81,62.19,90.81     L62.19,90.81z"></path></g></g></g><g class="st1"><g class="st0"><g><path d="M71.56,76.06H28.44c-1.38,0-2.5-1.12-2.5-2.5v-8.62c0-1.38,1.12-2.5,2.5-2.5h43.12c1.38,0,2.5,1.12,2.5,2.5v8.62     C74.06,74.94,72.94,76.06,71.56,76.06L71.56,76.06z M30.94,71.06h38.12v-3.62H30.94V71.06L30.94,71.06z"></path></g><g><path d="M66.56,84H33.44c-0.86,0-1.66-0.44-2.12-1.17l-5-7.94c-0.49-0.77-0.51-1.74-0.07-2.54s1.28-1.29,2.19-1.29h43.12     c0.91,0,1.75,0.5,2.19,1.29c0.44,0.8,0.41,1.77-0.07,2.54l-5,7.94C68.22,83.56,67.42,84,66.56,84L66.56,84z M34.82,79h30.37     l1.85-2.94H32.97L34.82,79L34.82,79z"></path></g><g><path d="M71.56,57.44H28.44c-1.38,0-2.5-1.12-2.5-2.5V32.69c0-1.38,1.12-2.5,2.5-2.5h43.12c1.38,0,2.5,1.12,2.5,2.5v22.25     C74.06,56.32,72.94,57.44,71.56,57.44L71.56,57.44z M30.94,52.44h38.12V35.19H30.94V52.44L30.94,52.44z"></path></g><g><path d="M71.56,67.44H28.44c-1.38,0-2.5-1.12-2.5-2.5v-10c0-1.38,1.12-2.5,2.5-2.5h43.12c1.38,0,2.5,1.12,2.5,2.5v10     C74.06,66.32,72.94,67.44,71.56,67.44L71.56,67.44z M30.94,62.44h38.12v-5H30.94V62.44L30.94,62.44z"></path></g><g><path d="M76.06,50.31H23.94c-1.38,0-2.5-1.12-2.5-2.5s1.12-2.5,2.5-2.5h52.12c1.38,0,2.5,1.12,2.5,2.5S77.44,50.31,76.06,50.31     L76.06,50.31z"></path></g><g><path d="M62.06,90.81H37.94c-1.38,0-2.5-1.12-2.5-2.5s1.12-2.5,2.5-2.5h24.12c1.38,0,2.5,1.12,2.5,2.5S63.44,90.81,62.06,90.81     L62.06,90.81z"></path></g><g><path d="M28.44,67.44c-1.38,0-2.5-1.12-2.5-2.5v-10c0-1.38,1.12-2.5,2.5-2.5s2.5,1.12,2.5,2.5v10     C30.94,66.32,29.82,67.44,28.44,67.44L28.44,67.44z"></path></g><g><path d="M35.62,67.44c-1.38,0-2.5-1.12-2.5-2.5v-10c0-1.38,1.12-2.5,2.5-2.5s2.5,1.12,2.5,2.5v10     C38.12,66.32,37.01,67.44,35.62,67.44L35.62,67.44z"></path></g><g><path d="M42.81,67.44c-1.38,0-2.5-1.12-2.5-2.5v-10c0-1.38,1.12-2.5,2.5-2.5s2.5,1.12,2.5,2.5v10     C45.31,66.32,44.19,67.44,42.81,67.44L42.81,67.44z"></path></g><g><path d="M50,67.44c-1.38,0-2.5-1.12-2.5-2.5v-10c0-1.38,1.12-2.5,2.5-2.5s2.5,1.12,2.5,2.5v10C52.5,66.32,51.38,67.44,50,67.44     L50,67.44z"></path></g><g><path d="M57.19,67.44c-1.38,0-2.5-1.12-2.5-2.5v-10c0-1.38,1.12-2.5,2.5-2.5s2.5,1.12,2.5,2.5v10     C59.69,66.32,58.57,67.44,57.19,67.44L57.19,67.44z"></path></g><g><path d="M64.38,67.44c-1.38,0-2.5-1.12-2.5-2.5v-10c0-1.38,1.12-2.5,2.5-2.5s2.5,1.12,2.5,2.5v10     C66.88,66.32,65.76,67.44,64.38,67.44L64.38,67.44z"></path></g><g><path d="M71.56,67.44c-1.38,0-2.5-1.12-2.5-2.5v-10c0-1.38,1.12-2.5,2.5-2.5s2.5,1.12,2.5,2.5v10     C74.06,66.32,72.94,67.44,71.56,67.44L71.56,67.44z"></path></g></g></g><g class="st1"><g class="st0"><g><path d="M76.58,40.62H23.42c-1.38,0-2.5-1.12-2.5-2.5V13.44c0-1.38,1.12-2.5,2.5-2.5h53.17c1.38,0,2.5,1.12,2.5,2.5v24.69     C79.08,39.51,77.96,40.62,76.58,40.62L76.58,40.62z M25.92,35.62h48.17V15.94H25.92V35.62L25.92,35.62z"></path></g><g><path d="M72.42,55.04H27.58c-1.38,0-2.5-1.12-2.5-2.5V38.12c0-1.38,1.12-2.5,2.5-2.5h44.83c1.38,0,2.5,1.12,2.5,2.5v14.42     C74.92,53.92,73.8,55.04,72.42,55.04L72.42,55.04z M30.08,50.04h39.83v-9.42H30.08V50.04L30.08,50.04z"></path></g><g><path d="M72.42,64.88H27.58c-1.38,0-2.5-1.12-2.5-2.5v-9.83c0-1.38,1.12-2.5,2.5-2.5h44.83c1.38,0,2.5,1.12,2.5,2.5v9.83     C74.92,63.76,73.8,64.88,72.42,64.88L72.42,64.88z M30.08,59.88h39.83v-4.83H30.08V59.88L30.08,59.88z"></path></g><g><path d="M72.42,83.88H27.58c-1.38,0-2.5-1.12-2.5-2.5v-19c0-1.38,1.12-2.5,2.5-2.5h44.83c1.38,0,2.5,1.12,2.5,2.5v19     C74.92,82.76,73.8,83.88,72.42,83.88L72.42,83.88z M30.08,78.88h39.83v-14H30.08V78.88L30.08,78.88z"></path></g><g><path d="M33.99,64.88c-1.38,0-2.5-1.12-2.5-2.5v-9.83c0-1.38,1.12-2.5,2.5-2.5s2.5,1.12,2.5,2.5v9.83     C36.49,63.76,35.37,64.88,33.99,64.88L33.99,64.88z"></path></g><g><path d="M40.39,64.88c-1.38,0-2.5-1.12-2.5-2.5v-9.83c0-1.38,1.12-2.5,2.5-2.5s2.5,1.12,2.5,2.5v9.83     C42.89,63.76,41.77,64.88,40.39,64.88L40.39,64.88z"></path></g><g><path d="M46.8,64.88c-1.38,0-2.5-1.12-2.5-2.5v-9.83c0-1.38,1.12-2.5,2.5-2.5s2.5,1.12,2.5,2.5v9.83     C49.3,63.76,48.18,64.88,46.8,64.88L46.8,64.88z"></path></g><g><path d="M53.2,64.88c-1.38,0-2.5-1.12-2.5-2.5v-9.83c0-1.38,1.12-2.5,2.5-2.5s2.5,1.12,2.5,2.5v9.83     C55.7,63.76,54.58,64.88,53.2,64.88L53.2,64.88z"></path></g><g><path d="M59.61,64.88c-1.38,0-2.5-1.12-2.5-2.5v-9.83c0-1.38,1.12-2.5,2.5-2.5s2.5,1.12,2.5,2.5v9.83     C62.11,63.76,60.99,64.88,59.61,64.88L59.61,64.88z"></path></g><g><path d="M66.01,64.88c-1.38,0-2.5-1.12-2.5-2.5v-9.83c0-1.38,1.12-2.5,2.5-2.5s2.5,1.12,2.5,2.5v9.83     C68.51,63.76,67.39,64.88,66.01,64.88L66.01,64.88z"></path></g><g><path d="M76.58,47.83H23.42c-1.38,0-2.5-1.12-2.5-2.5s1.12-2.5,2.5-2.5h53.17c1.38,0,2.5,1.12,2.5,2.5S77.96,47.83,76.58,47.83     L76.58,47.83z"></path></g><g><path d="M66.01,90.81H33.99c-1.38,0-2.5-1.12-2.5-2.5s1.12-2.5,2.5-2.5h32.02c1.38,0,2.5,1.12,2.5,2.5S67.39,90.81,66.01,90.81     L66.01,90.81z"></path></g></g></g><g class="st1"><g class="st0"><g><path d="M76.33,27.83H23.67c-1.14,0-1.14,0-5.88-5.44c-0.4-0.46-0.62-1.04-0.62-1.64l0-6.06c0-1.18,0-3.62,2.5-3.62h60.67     c1.38,0,2.5,1.12,2.5,2.5v7.19c0,0.6-0.22,1.19-0.62,1.64l-4,4.58C77.74,27.52,77.06,27.83,76.33,27.83L76.33,27.83z M24.8,22.83     H75.2l2.64-3.02v-3.75H22.17c0,1.3,0,2.8,0,3.75C22.88,20.63,24.04,21.96,24.8,22.83L24.8,22.83z"></path></g><g><path d="M76.33,55.25H23.67c-1.38,0-2.5-1.12-2.5-2.5V25.33c0-1.38,1.12-2.5,2.5-2.5h52.67c1.38,0,2.5,1.12,2.5,2.5v27.42     C78.83,54.13,77.71,55.25,76.33,55.25L76.33,55.25z M26.17,50.25h47.67V27.83H26.17V50.25L26.17,50.25z"></path></g><g><path d="M80.33,48.62H19.67c-1.38,0-2.5-1.12-2.5-2.5s1.12-2.5,2.5-2.5h60.67c1.38,0,2.5,1.12,2.5,2.5S81.71,48.62,80.33,48.62     L80.33,48.62z"></path></g><g><path d="M76.33,64.88H23.67c-1.38,0-2.5-1.12-2.5-2.5v-9.62c0-1.38,1.12-2.5,2.5-2.5h52.67c1.38,0,2.5,1.12,2.5,2.5v9.62     C78.83,63.76,77.71,64.88,76.33,64.88L76.33,64.88z M26.17,59.88h47.67v-4.62H26.17V59.88L26.17,59.88z"></path></g><g><path d="M76.33,75.88H23.67c-1.38,0-2.5-1.12-2.5-2.5v-11c0-1.38,1.12-2.5,2.5-2.5h52.67c1.38,0,2.5,1.12,2.5,2.5v11     C78.83,74.76,77.71,75.88,76.33,75.88L76.33,75.88z M26.17,70.88h47.67v-6H26.17V70.88L26.17,70.88z"></path></g><g><path d="M70.33,84H29.67c-0.79,0-1.54-0.38-2.01-1.01l-6-8.12c-0.56-0.76-0.65-1.77-0.22-2.61c0.43-0.84,1.29-1.37,2.23-1.37     h52.67c0.94,0,1.81,0.53,2.23,1.37c0.43,0.84,0.34,1.85-0.22,2.61l-6,8.12C71.87,83.62,71.13,84,70.33,84L70.33,84z M30.93,79     h38.14l2.31-3.12H28.62L30.93,79L30.93,79z"></path></g><g><path d="M63.5,90.81h-27c-1.38,0-2.5-1.12-2.5-2.5s1.12-2.5,2.5-2.5h27c1.38,0,2.5,1.12,2.5,2.5S64.88,90.81,63.5,90.81     L63.5,90.81z"></path></g><g><path d="M29.88,55.25c-1.38,0-2.5-1.12-2.5-2.5v-6.62c0-1.38,1.12-2.5,2.5-2.5s2.5,1.12,2.5,2.5v6.62     C32.38,54.13,31.26,55.25,29.88,55.25L29.88,55.25z"></path></g><g><path d="M36.08,55.25c-1.38,0-2.5-1.12-2.5-2.5v-6.62c0-1.38,1.12-2.5,2.5-2.5s2.5,1.12,2.5,2.5v6.62     C38.58,54.13,37.46,55.25,36.08,55.25L36.08,55.25z"></path></g><g><path d="M42.29,55.25c-1.38,0-2.5-1.12-2.5-2.5v-6.62c0-1.38,1.12-2.5,2.5-2.5s2.5,1.12,2.5,2.5v6.62     C44.79,54.13,43.67,55.25,42.29,55.25L42.29,55.25z"></path></g><g><path d="M48.5,55.25c-1.38,0-2.5-1.12-2.5-2.5v-6.62c0-1.38,1.12-2.5,2.5-2.5s2.5,1.12,2.5,2.5v6.62     C51,54.13,49.88,55.25,48.5,55.25L48.5,55.25z"></path></g><g><path d="M57.71,64.88c-1.38,0-2.5-1.12-2.5-2.5v-9.62c0-1.38,1.12-2.5,2.5-2.5s2.5,1.12,2.5,2.5v9.62     C60.21,63.76,59.09,64.88,57.71,64.88L57.71,64.88z"></path></g><g><path d="M63.92,64.88c-1.38,0-2.5-1.12-2.5-2.5v-9.62c0-1.38,1.12-2.5,2.5-2.5s2.5,1.12,2.5,2.5v9.62     C66.42,63.76,65.3,64.88,63.92,64.88L63.92,64.88z"></path></g><g><path d="M70.12,64.88c-1.38,0-2.5-1.12-2.5-2.5v-9.62c0-1.38,1.12-2.5,2.5-2.5s2.5,1.12,2.5,2.5v9.62     C72.62,63.76,71.51,64.88,70.12,64.88L70.12,64.88z"></path></g><g><path d="M66.25,41.54h-32.5c-1.38,0-2.5-1.12-2.5-2.5s1.12-2.5,2.5-2.5h32.5c1.38,0,2.5,1.12,2.5,2.5S67.63,41.54,66.25,41.54     L66.25,41.54z"></path></g></g></g><g class="st1"><g class="st0"><g><path d="M91.51,77.1h-83c-1.38,0-2.5-1.12-2.5-2.5V25.54c0-1.38,1.12-2.5,2.5-2.5h32.87v-4.29c0-1.38,1.12-2.5,2.5-2.5h44.27     c1.38,0,2.5,1.12,2.5,2.5v4.29h0.86c1.38,0,2.5,1.12,2.5,2.5V74.6C94.01,75.98,92.89,77.1,91.51,77.1L91.51,77.1z M11.01,72.1h78     V28.04h-0.86c-1.38,0-2.5-1.12-2.5-2.5v-4.29H46.38v4.29c0,1.38-1.12,2.5-2.5,2.5H11.01V72.1L11.01,72.1z"></path></g><g><path d="M91.51,71.58h-83c-1.38,0-2.5-1.12-2.5-2.5V38.74c0-1.38,1.12-2.5,2.5-2.5h35.12c1.38,0,2.5,1.12,2.5,2.5     s-1.12,2.5-2.5,2.5H11.01v25.34h78V41.24h-21.4c-1.38,0-2.5-1.12-2.5-2.5s1.12-2.5,2.5-2.5h23.9c1.38,0,2.5,1.12,2.5,2.5v30.34     C94.01,70.46,92.89,71.58,91.51,71.58L91.51,71.58z"></path></g><g><path d="M22.25,28.04h-9.5c-1.38,0-2.5-1.12-2.5-2.5v-6.79c0-1.38,1.12-2.5,2.5-2.5h9.5c1.38,0,2.5,1.12,2.5,2.5v6.79     C24.75,26.92,23.63,28.04,22.25,28.04L22.25,28.04z M15.25,23.04h4.5v-1.79h-4.5V23.04L15.25,23.04z"></path></g><g><path d="M43.51,28.04H29.62c-1.38,0-2.5-1.12-2.5-2.5v-3.4c0-1.38,1.12-2.5,2.5-2.5h13.88c1.38,0,2.5,1.12,2.5,2.5v3.4     C46.01,26.92,44.89,28.04,43.51,28.04L43.51,28.04z"></path></g><g><path d="M55.62,71.58c-11.05,0-20.04-8.99-20.04-20.04c0-11.05,8.99-20.04,20.04-20.04c11.05,0,20.04,8.99,20.04,20.04     C75.67,62.59,66.68,71.58,55.62,71.58L55.62,71.58z M55.62,36.5c-8.29,0-15.04,6.75-15.04,15.04c0,8.29,6.75,15.04,15.04,15.04     c8.29,0,15.04-6.75,15.04-15.04C70.67,43.25,63.92,36.5,55.62,36.5L55.62,36.5z"></path></g><g><path d="M27.5,65.38c-3.45,0-6.25-2.8-6.25-6.25s2.8-6.25,6.25-6.25s6.25,2.8,6.25,6.25S30.95,65.38,27.5,65.38L27.5,65.38z      M27.5,57.88c-0.69,0-1.25,0.56-1.25,1.25s0.56,1.25,1.25,1.25s1.25-0.56,1.25-1.25S28.19,57.88,27.5,57.88L27.5,57.88z"></path></g><g><path d="M55.62,64.08c-6.92,0-12.54-5.62-12.54-12.54S48.71,39,55.62,39s12.54,5.63,12.54,12.54S62.54,64.08,55.62,64.08     L55.62,64.08z M55.62,44c-4.16,0-7.54,3.38-7.54,7.54c0,4.16,3.38,7.54,7.54,7.54s7.54-3.38,7.54-7.54     C63.17,47.38,59.78,44,55.62,44L55.62,44z"></path></g><g><path d="M78.88,50.62c-1.38,0-2.5-1.12-2.5-2.5v-9.39c0-1.38,1.12-2.5,2.5-2.5s2.5,1.12,2.5,2.5v9.39     C81.38,49.51,80.26,50.62,78.88,50.62L78.88,50.62z"></path></g><g><path d="M66.25,35.5H56.5c-1.38,0-2.5-1.12-2.5-2.5v-8.33c0-1.38,1.12-2.5,2.5-2.5h9.75c1.38,0,2.5,1.12,2.5,2.5V33     C68.75,34.38,67.63,35.5,66.25,35.5L66.25,35.5z M59,30.5h4.75v-3.33H59V30.5L59,30.5z"></path></g><g><path d="M81.92,35.5h-9.75c-1.38,0-2.5-1.12-2.5-2.5v-8.33c0-1.38,1.12-2.5,2.5-2.5h9.75c1.38,0,2.5,1.12,2.5,2.5V33     C84.42,34.38,83.3,35.5,81.92,35.5L81.92,35.5z M74.67,30.5h4.75v-3.33h-4.75V30.5L74.67,30.5z"></path></g><g><path d="M38.39,33.92h-8.77c-1.38,0-2.5-1.12-2.5-2.5v-5.88c0-1.38,1.12-2.5,2.5-2.5h8.77c1.38,0,2.5,1.12,2.5,2.5v5.88     C40.89,32.8,39.77,33.92,38.39,33.92L38.39,33.92z M32.12,28.92h3.77v-0.88h-3.77V28.92L32.12,28.92z"></path></g></g></g><g class="st1"><g class="st0"><g><path d="M61.06,45.08h-47.2c-1.38,0-2.5-1.12-2.5-2.5V9.57c0-1.38,1.12-2.5,2.5-2.5H67.7c0.75,0,1.46,0.34,1.93,0.92     c0.47,0.58,0.66,1.34,0.52,2.08l-6.64,33.01C63.28,44.24,62.25,45.08,61.06,45.08L61.06,45.08z M16.36,40.08h42.66l5.63-28.01     H16.36V40.08L16.36,40.08z"></path></g><g><path d="M58.21,58.63h-41.4c-1.38,0-2.5-1.12-2.5-2.5V42.58c0-1.38,1.12-2.5,2.5-2.5h41.4c1.38,0,2.5,1.12,2.5,2.5v13.55     C60.71,57.51,59.59,58.63,58.21,58.63L58.21,58.63z M19.31,53.63h36.4v-8.55h-36.4V53.63L19.31,53.63z"></path></g><g><path d="M58.21,58.63H41.33c-1.38,0-2.5-1.12-2.5-2.5v-6.78c0-1.38,1.12-2.5,2.5-2.5h16.87c1.38,0,2.5,1.12,2.5,2.5v6.78     C60.71,57.51,59.59,58.63,58.21,58.63L58.21,58.63z M43.83,53.63h11.87v-1.78H43.83V53.63L43.83,53.63z"></path></g><g><path d="M33.31,51.86h-7.84c-1.38,0-2.5-1.12-2.5-2.5s1.12-2.5,2.5-2.5h7.84c1.38,0,2.5,1.12,2.5,2.5S34.69,51.86,33.31,51.86     L33.31,51.86z"></path></g><g><path d="M49.82,45.08c-1.38,0-2.5-1.11-2.5-2.49L47.23,9.58c0-1.38,1.11-2.5,2.49-2.51c0,0,0,0,0.01,0c1.38,0,2.5,1.11,2.5,2.49     l0.09,33.01C52.32,43.95,51.2,45.07,49.82,45.08C49.82,45.08,49.82,45.08,49.82,45.08L49.82,45.08z"></path></g><g><path d="M41.76,29.22c-1.38,0-2.5-1.12-2.5-2.49l-0.02-9.22c0-1.38,1.11-2.5,2.49-2.51c0,0,0,0,0.01,0c1.38,0,2.5,1.12,2.5,2.49     l0.02,9.22C44.26,28.1,43.15,29.22,41.76,29.22C41.76,29.22,41.76,29.22,41.76,29.22L41.76,29.22z"></path></g><g><path d="M32.21,29.22H21.79c-1.38,0-2.5-1.12-2.5-2.5V17.5c0-1.38,1.12-2.5,2.5-2.5h10.42c1.38,0,2.5,1.12,2.5,2.5v9.22     C34.71,28.1,33.59,29.22,32.21,29.22L32.21,29.22z M24.29,24.22h5.42V20h-5.42V24.22L24.29,24.22z"></path></g><g><path d="M75.22,23.55h-9.82c-0.75,0-1.46-0.34-1.94-0.92c-0.48-0.58-0.66-1.35-0.51-2.08l1.7-8.23c0.24-1.16,1.26-2,2.45-2h8.13     c1.38,0,2.5,1.12,2.5,2.5v8.23C77.72,22.43,76.6,23.55,75.22,23.55L75.22,23.55z M68.46,18.55h4.26v-3.23h-3.59L68.46,18.55     L68.46,18.55z"></path></g><g><path d="M70.3,45.08c-1.38,0-2.5-1.12-2.5-2.5V21.05c0-1.38,1.12-2.5,2.5-2.5s2.5,1.12,2.5,2.5v21.53     C72.8,43.96,71.69,45.08,70.3,45.08L70.3,45.08z"></path></g><g><path d="M79.5,41.67h-9.2c-1.38,0-2.5-1.12-2.5-2.5V27.83c0-1.38,1.12-2.5,2.5-2.5h9.2c1.38,0,2.5,1.12,2.5,2.5v11.34     C82,40.55,80.88,41.67,79.5,41.67L79.5,41.67z M72.8,36.67H77v-6.34h-4.2V36.67L72.8,36.67z"></path></g><g><path d="M86.14,39.73H79.5c-1.38,0-2.5-1.12-2.5-2.5v-7.47c0-1.38,1.12-2.5,2.5-2.5h6.64c1.38,0,2.5,1.12,2.5,2.5v7.47     C88.64,38.61,87.52,39.73,86.14,39.73L86.14,39.73z M82,34.73h1.64v-2.47H82V34.73L82,34.73z"></path></g><g><path d="M64.84,57.8c-0.59,0-1.19-0.21-1.67-0.64l-6.64-5.95c-1.03-0.92-1.12-2.5-0.19-3.53c0.92-1.03,2.5-1.12,3.53-0.19     l6.64,5.95c1.03,0.92,1.12,2.5,0.19,3.53C66.21,57.52,65.53,57.8,64.84,57.8L64.84,57.8z"></path></g><g><path d="M58.21,65.73H41.33c-1.38,0-2.5-1.12-2.5-2.5v-7.1c0-1.38,1.12-2.5,2.5-2.5h16.87c1.38,0,2.5,1.12,2.5,2.5v7.1     C60.71,64.61,59.59,65.73,58.21,65.73L58.21,65.73z M43.83,60.73h11.87v-2.1H43.83V60.73L43.83,60.73z"></path></g><g><path d="M58.21,92.93H41.33c-1.38,0-2.5-1.12-2.5-2.5v-7.1c0-1.38,1.12-2.5,2.5-2.5h16.87c1.38,0,2.5,1.12,2.5,2.5v7.1     C60.71,91.81,59.59,92.93,58.21,92.93L58.21,92.93z M43.83,87.93h11.87v-2.1H43.83V87.93L43.83,87.93z"></path></g><g><path d="M54.79,85.83H44.74c-1.38,0-2.5-1.12-2.5-2.5v-20.1c0-1.38,1.12-2.5,2.5-2.5h10.05c1.38,0,2.5,1.12,2.5,2.5v20.1     C57.29,84.71,56.18,85.83,54.79,85.83L54.79,85.83z M47.24,80.83h5.05v-15.1h-5.05V80.83L47.24,80.83z"></path></g><g><path d="M70.3,41.67h-8.55c-1.38,0-2.5-1.12-2.5-2.5s1.12-2.5,2.5-2.5h8.55c1.38,0,2.5,1.12,2.5,2.5S71.69,41.67,70.3,41.67     L70.3,41.67z"></path></g></g></g><g class="st1"><g class="st0"><g><path d="M60.06,58.01H18.87c-1.38,0-2.5-1.12-2.5-2.5V19.07c0-1.38,1.12-2.5,2.5-2.5h41.19c1.38,0,2.5,1.12,2.5,2.5v36.44     C62.56,56.89,61.44,58.01,60.06,58.01L60.06,58.01z M21.37,53.01h36.19V21.57H21.37V53.01L21.37,53.01z"></path></g><g><path d="M60.06,58.01c-0.39,0-0.77-0.09-1.13-0.27c-0.84-0.43-1.37-1.29-1.37-2.23V19.07c0-0.94,0.53-1.8,1.37-2.23     c0.84-0.42,1.85-0.34,2.61,0.21l13.67,10c0.64,0.47,1.02,1.22,1.02,2.02v16.44c0,0.8-0.38,1.55-1.02,2.02l-13.67,10     C61.1,57.84,60.58,58.01,60.06,58.01L60.06,58.01z M62.56,24v26.58l8.67-6.34v-13.9L62.56,24L62.56,24z"></path></g><g><path d="M81.13,44.4h-7.41c-1.38,0-2.5-1.12-2.5-2.5v-9.23c0-1.38,1.12-2.5,2.5-2.5h7.41c1.38,0,2.5,1.12,2.5,2.5v9.23     C83.63,43.28,82.52,44.4,81.13,44.4L81.13,44.4z M76.22,39.4h2.41v-4.23h-2.41V39.4L76.22,39.4z"></path></g><g><g><path d="M60.04,75.16c-1.38,0-2.5-1.12-2.5-2.5v-22.2c0-1.38,1.12-2.5,2.5-2.5s2.5,1.12,2.5,2.5v22.2      C62.54,74.04,61.43,75.16,60.04,75.16L60.04,75.16z"></path></g><g><path d="M44.4,90.81c-0.64,0-1.28-0.24-1.77-0.73c-0.98-0.98-0.98-2.56,0-3.54l15.66-15.66c0.98-0.98,2.56-0.98,3.54,0      s0.98,2.56,0,3.54L46.17,90.08C45.68,90.57,45.04,90.81,44.4,90.81L44.4,90.81z"></path></g><g><path d="M75.71,90.81c-0.64,0-1.28-0.24-1.77-0.73L58.29,74.42c-0.98-0.98-0.98-2.56,0-3.54s2.56-0.98,3.54,0l15.66,15.66      c0.98,0.98,0.98,2.56,0,3.54C76.99,90.57,76.35,90.81,75.71,90.81L75.71,90.81z"></path></g><g><path d="M68.71,83.82H51.39c-1.38,0-2.5-1.12-2.5-2.5s1.12-2.5,2.5-2.5h17.32c1.38,0,2.5,1.12,2.5,2.5S70.09,83.82,68.71,83.82      L68.71,83.82z"></path></g></g></g></g></svg>