<svg height='300px' width='300px'  fill="#000000" xmlns="http://www.w3.org/2000/svg" xmlns:xlink="http://www.w3.org/1999/xlink" version="1.1" x="0px" y="0px" viewBox="0 0 100 100" style="enable-background:new 0 0 100 100;" xml:space="preserve"><path d="M90,48H34.84c-0.91-3.79-4.31-6.62-8.38-6.62c-4.06,0-7.46,2.83-8.37,6.62H10c-1.1,0-2,0.9-2,2s0.9,2,2,2h8.09  c0.9,3.79,4.31,6.62,8.37,6.62c4.06,0,7.47-2.83,8.38-6.62H90c1.1,0,2-0.9,2-2S91.1,48,90,48z M26.46,54.62  c-2.54,0-4.61-2.07-4.61-4.62s2.07-4.62,4.61-4.62c2.55,0,4.62,2.07,4.62,4.62S29.01,54.62,26.46,54.62z"></path><path d="M90,70.48H64.19c-0.91-3.79-4.31-6.62-8.38-6.62c-4.06,0-7.47,2.83-8.38,6.62H10c-1.1,0-2,0.9-2,2s0.9,2,2,2h37.43  c0.91,3.79,4.31,6.62,8.38,6.62c4.06,0,7.47-2.83,8.38-6.62H90c1.1,0,2-0.9,2-2S91.1,70.48,90,70.48z M55.81,77.11  c-2.55,0-4.62-2.07-4.62-4.62c0-2.55,2.07-4.62,4.62-4.62c2.55,0,4.62,2.07,4.62,4.62C60.43,75.03,58.36,77.11,55.81,77.11z"></path><path d="M90,25.52h-6.7c-0.91-3.79-4.31-6.62-8.38-6.62c-4.06,0-7.47,2.83-8.38,6.62H10c-1.1,0-2,0.9-2,2s0.9,2,2,2h56.55  c0.91,3.79,4.31,6.62,8.38,6.62c4.06,0,7.47-2.83,8.38-6.62H90c1.1,0,2-0.9,2-2S91.1,25.52,90,25.52z M74.92,32.14  c-2.55,0-4.62-2.07-4.62-4.62c0-2.55,2.07-4.62,4.62-4.62c2.55,0,4.62,2.07,4.62,4.62C79.55,30.06,77.47,32.14,74.92,32.14z"></path></svg>